<svg width="1040" height="403" viewBox="0 0 1040 403" fill="none" xmlns="http://www.w3.org/2000/svg">
<rect width="1040" height="403" rx="8" fill="#222222"/>
<rect x="91" y="24" width="888" height="56" fill="white" fill-opacity="0.1"/>
<rect x="91" y="88" width="888" height="156" fill="#52CF29" fill-opacity="0.1"/>
<rect x="91" y="252" width="888" height="78" fill="white" fill-opacity="0.1"/>
<path d="M91 24L85.2265 34H96.7735L91 24ZM91 344H90V345H91V344ZM815 344L805 338.227V349.774L815 344ZM91 33H90V344H91H92V33H91ZM91 344V345H806V344V343H91V344Z" fill="white"/>
<path d="M21.3223 182.396C21.2865 182.135 21.1986 181.91 21.0586 181.722C20.9219 181.53 20.7428 181.383 20.5215 181.282C20.3001 181.181 20.0544 181.131 19.7842 181.131C19.4163 181.131 19.0941 181.224 18.8174 181.409C18.5439 181.591 18.3307 181.858 18.1777 182.21C18.0247 182.558 17.9482 182.977 17.9482 183.465C17.9482 183.966 18.0247 184.391 18.1777 184.739C18.3307 185.084 18.5439 185.348 18.8174 185.53C19.0941 185.709 19.4115 185.799 19.7695 185.799C20.0397 185.799 20.2822 185.75 20.4971 185.652C20.7152 185.555 20.8958 185.416 21.0391 185.237C21.1823 185.055 21.2767 184.839 21.3223 184.588L22.8115 184.603C22.7562 185.045 22.5967 185.457 22.333 185.838C22.0726 186.219 21.721 186.525 21.2783 186.756C20.8356 186.984 20.3262 187.098 19.75 187.098C19.1185 187.098 18.5537 186.954 18.0557 186.668C17.5576 186.378 17.167 185.96 16.8838 185.413C16.6038 184.863 16.4639 184.214 16.4639 183.465C16.4639 182.71 16.6055 182.059 16.8887 181.512C17.1751 180.965 17.5658 180.548 18.0605 180.262C18.5586 179.975 19.1217 179.832 19.75 179.832C20.2936 179.832 20.7852 179.933 21.2246 180.135C21.6641 180.337 22.0205 180.631 22.2939 181.019C22.5706 181.403 22.7432 181.862 22.8115 182.396H21.3223ZM25.9904 187.103C25.4631 187.103 25.0025 186.989 24.6086 186.761C24.2147 186.533 23.912 186.212 23.7004 185.799C23.4888 185.385 23.383 184.909 23.383 184.368C23.383 183.821 23.4888 183.343 23.7004 182.933C23.912 182.519 24.2147 182.199 24.6086 181.971C25.0025 181.743 25.4631 181.629 25.9904 181.629C26.5145 181.629 26.9735 181.743 27.3674 181.971C27.7645 182.199 28.0673 182.519 28.2756 182.933C28.4839 183.343 28.5881 183.821 28.5881 184.368C28.5881 184.909 28.4839 185.385 28.2756 185.799C28.0673 186.212 27.7645 186.533 27.3674 186.761C26.9735 186.989 26.5145 187.103 25.9904 187.103ZM26.0002 185.984C26.2411 185.984 26.4445 185.914 26.6105 185.774C26.7798 185.634 26.9068 185.442 26.9914 185.198C27.076 184.951 27.1184 184.671 27.1184 184.358C27.1184 184.043 27.076 183.763 26.9914 183.519C26.9068 183.274 26.7798 183.082 26.6105 182.942C26.4445 182.802 26.2411 182.732 26.0002 182.732C25.7528 182.732 25.5428 182.802 25.3703 182.942C25.1978 183.082 25.0676 183.274 24.9797 183.519C24.8918 183.759 24.8479 184.039 24.8479 184.358C24.8479 184.674 24.8918 184.954 24.9797 185.198C25.0676 185.442 25.1978 185.634 25.3703 185.774C25.5428 185.914 25.7528 185.984 26.0002 185.984ZM29.3012 181.697H30.6781V182.625H30.7367C30.8539 182.309 31.0411 182.065 31.2982 181.893C31.5554 181.717 31.8614 181.629 32.2162 181.629C32.4538 181.629 32.6703 181.67 32.8656 181.751C33.0642 181.829 33.2302 181.943 33.3637 182.093C33.4971 182.243 33.5948 182.42 33.6566 182.625H33.7055C33.7836 182.423 33.8992 182.247 34.0521 182.098C34.2051 181.948 34.3891 181.832 34.6039 181.751C34.8188 181.67 35.0531 181.629 35.307 181.629C35.6391 181.629 35.9304 181.701 36.1811 181.844C36.435 181.984 36.6319 182.19 36.7719 182.464C36.9118 182.734 36.9818 183.06 36.9818 183.44V187H35.5316V183.714C35.5316 183.424 35.4551 183.204 35.3021 183.055C35.1492 182.902 34.949 182.825 34.7016 182.825C34.5225 182.825 34.3679 182.864 34.2377 182.942C34.1107 183.017 34.0115 183.125 33.9398 183.265C33.8715 183.401 33.8373 183.564 33.8373 183.753V187H32.4359V183.675C32.4359 183.506 32.4018 183.356 32.3334 183.226C32.2683 183.095 32.1739 182.996 32.0502 182.928C31.9265 182.859 31.7833 182.825 31.6205 182.825C31.4577 182.825 31.3096 182.866 31.1762 182.947C31.046 183.025 30.9418 183.139 30.8637 183.289C30.7855 183.439 30.7465 183.613 30.7465 183.812V187H29.3012V181.697ZM37.8902 181.697H39.3111V182.586H39.3795C39.4674 182.407 39.5699 182.249 39.6871 182.112C39.8076 181.976 39.9687 181.862 40.1705 181.771C40.3723 181.676 40.6116 181.629 40.8883 181.629C41.2887 181.629 41.6516 181.731 41.9771 181.937C42.3027 182.142 42.5598 182.449 42.7486 182.859C42.9407 183.27 43.0367 183.768 43.0367 184.354C43.0367 184.926 42.9439 185.42 42.7584 185.833C42.5729 186.243 42.3173 186.554 41.9918 186.766C41.6663 186.977 41.2968 187.083 40.8834 187.083C40.6165 187.083 40.3821 187.037 40.1803 186.946C39.9785 186.855 39.8157 186.744 39.692 186.614C39.5715 186.484 39.4674 186.331 39.3795 186.155H39.3355V188.992H37.8902V181.697ZM39.2965 184.344C39.2965 184.66 39.3421 184.938 39.4332 185.179C39.5243 185.42 39.6546 185.605 39.8238 185.735C39.9931 185.866 40.1982 185.931 40.4391 185.931C40.6767 185.931 40.8801 185.864 41.0494 185.73C41.2219 185.597 41.3505 185.411 41.4352 185.174C41.523 184.933 41.567 184.656 41.567 184.344C41.567 184.031 41.523 183.758 41.4352 183.523C41.3505 183.289 41.2236 183.108 41.0543 182.981C40.885 182.851 40.6799 182.786 40.4391 182.786C40.1982 182.786 39.9931 182.85 39.8238 182.977C39.6546 183.1 39.5243 183.279 39.4332 183.514C39.3421 183.748 39.2965 184.025 39.2965 184.344ZM46.1717 187.103C45.6378 187.103 45.1723 186.992 44.7752 186.771C44.3813 186.549 44.077 186.233 43.8621 185.823C43.6505 185.413 43.5447 184.931 43.5447 184.378C43.5447 183.831 43.6505 183.351 43.8621 182.938C44.077 182.521 44.3781 182.199 44.7654 181.971C45.1528 181.743 45.602 181.629 46.1131 181.629C46.5916 181.629 47.018 181.73 47.3924 181.932C47.7667 182.13 48.0613 182.431 48.2762 182.835C48.491 183.239 48.5984 183.732 48.5984 184.314V184.72H44.1355V183.816H47.2361C47.2361 183.602 47.1889 183.411 47.0945 183.245C47.0001 183.076 46.8699 182.944 46.7039 182.85C46.5379 182.755 46.3491 182.708 46.1375 182.708C45.9129 182.708 45.7127 182.76 45.5369 182.864C45.3611 182.965 45.2228 183.105 45.1219 183.284C45.0242 183.463 44.9738 183.659 44.9705 183.87V184.72C44.9705 184.983 45.021 185.215 45.1219 185.413C45.2228 185.612 45.3644 185.763 45.5467 185.867C45.7322 185.971 45.9471 186.023 46.1912 186.023C46.354 186.023 46.5021 186.001 46.6355 185.955C46.769 185.906 46.8813 185.844 46.9725 185.77C47.0669 185.691 47.1385 185.6 47.1873 185.496H48.5643C48.4959 185.818 48.3543 186.102 48.1395 186.346C47.9279 186.587 47.6528 186.774 47.3143 186.907C46.979 187.037 46.5981 187.103 46.1717 187.103ZM52.0996 182.781H48.9258V181.697H52.0996V182.781ZM51.1035 180.428V185.369C51.1035 185.506 51.123 185.613 51.1621 185.691C51.2044 185.766 51.2614 185.82 51.333 185.853C51.4079 185.882 51.499 185.898 51.6064 185.901C51.7432 185.905 51.932 185.896 52.1729 185.877V187.02C51.9548 187.055 51.7025 187.073 51.416 187.073C51.0579 187.073 50.7471 187.02 50.4834 186.912C50.2197 186.801 50.0146 186.634 49.8682 186.409C49.7217 186.185 49.6501 185.905 49.6533 185.569V180.428H51.1035ZM55.1662 187.103C54.6324 187.103 54.1669 186.992 53.7697 186.771C53.3758 186.549 53.0715 186.233 52.8566 185.823C52.6451 185.413 52.5393 184.931 52.5393 184.378C52.5393 183.831 52.6451 183.351 52.8566 182.938C53.0715 182.521 53.3726 182.199 53.76 181.971C54.1473 181.743 54.5965 181.629 55.1076 181.629C55.5861 181.629 56.0126 181.73 56.3869 181.932C56.7613 182.13 57.0559 182.431 57.2707 182.835C57.4855 183.239 57.593 183.732 57.593 184.314V184.72H53.1301V183.816H56.2307C56.2307 183.602 56.1835 183.411 56.0891 183.245C55.9947 183.076 55.8645 182.944 55.6984 182.85C55.5324 182.755 55.3436 182.708 55.132 182.708C54.9074 182.708 54.7072 182.76 54.5314 182.864C54.3557 182.965 54.2173 183.105 54.1164 183.284C54.0187 183.463 53.9683 183.659 53.965 183.87V184.72C53.965 184.983 54.0155 185.215 54.1164 185.413C54.2173 185.612 54.3589 185.763 54.5412 185.867C54.7268 185.971 54.9416 186.023 55.1857 186.023C55.3485 186.023 55.4966 186.001 55.6301 185.955C55.7635 185.906 55.8758 185.844 55.967 185.77C56.0614 185.691 56.133 185.6 56.1818 185.496H57.5588C57.4904 185.818 57.3488 186.102 57.134 186.346C56.9224 186.587 56.6473 186.774 56.3088 186.907C55.9735 187.037 55.5926 187.103 55.1662 187.103ZM59.7465 187H58.3012V181.697H59.6781V182.625H59.7367C59.8604 182.312 60.059 182.068 60.3324 181.893C60.6091 181.717 60.9428 181.629 61.3334 181.629C61.7012 181.629 62.0219 181.709 62.2953 181.868C62.5687 182.028 62.7803 182.257 62.9301 182.557C63.0831 182.856 63.1596 183.211 63.1596 183.621V187H61.7143V183.87C61.7143 183.652 61.6768 183.466 61.602 183.313C61.5303 183.157 61.4229 183.038 61.2797 182.957C61.1365 182.872 60.9639 182.83 60.7621 182.83C60.5603 182.83 60.3829 182.874 60.2299 182.962C60.0769 183.047 59.9581 183.172 59.8734 183.338C59.7888 183.501 59.7465 183.698 59.7465 183.929V187ZM66.4654 187.103C65.9316 187.103 65.4677 186.987 65.0738 186.756C64.6799 186.525 64.3788 186.202 64.1705 185.789C63.9622 185.376 63.858 184.902 63.858 184.368C63.858 183.828 63.9638 183.351 64.1754 182.938C64.387 182.524 64.6881 182.203 65.0787 181.976C65.4693 181.744 65.9283 181.629 66.4557 181.629C66.9114 181.629 67.3134 181.712 67.6617 181.878C68.0133 182.041 68.2883 182.275 68.4869 182.581C68.6887 182.887 68.7994 183.24 68.8189 183.641H67.4518C67.4257 183.465 67.3704 183.31 67.2857 183.177C67.2011 183.04 67.0904 182.936 66.9537 182.864C66.817 182.789 66.6591 182.752 66.4801 182.752C66.249 182.752 66.0471 182.815 65.8746 182.942C65.7021 183.066 65.567 183.247 65.4693 183.484C65.3717 183.722 65.3229 184.008 65.3229 184.344C65.3229 184.682 65.3701 184.972 65.4645 185.213C65.5621 185.451 65.6972 185.633 65.8697 185.76C66.0423 185.887 66.2457 185.95 66.4801 185.95C66.6526 185.95 66.8072 185.918 66.9439 185.853C67.0807 185.784 67.193 185.683 67.2809 185.55C67.3688 185.416 67.4257 185.257 67.4518 185.071H68.8189C68.7962 185.472 68.6855 185.825 68.4869 186.131C68.2916 186.437 68.0198 186.676 67.6715 186.849C67.3264 187.018 66.9244 187.103 66.4654 187.103ZM70.3621 188.992C70.0789 188.992 69.8348 188.984 69.6297 188.968V187.84L69.8738 187.854C69.9715 187.858 70.0854 187.859 70.2156 187.859C70.3328 187.859 70.4305 187.85 70.5086 187.83C70.5867 187.811 70.66 187.765 70.7283 187.693C70.7967 187.622 70.8569 187.514 70.909 187.371L70.9969 187.151L69.0877 181.697H70.6111L71.7244 185.604H71.783L72.9012 181.697H74.4344L72.3641 187.581C72.2046 188.03 71.9653 188.377 71.6463 188.621C71.3273 188.868 70.8992 188.992 70.3621 188.992Z" fill="white"/>
<path d="M995.317 169.93H1001.11V171.141H998.94V177H997.49V171.141H995.317V169.93ZM1003.24 177H1001.79V169.93H1003.2V172.625H1003.26C1003.38 172.309 1003.58 172.065 1003.85 171.893C1004.12 171.717 1004.45 171.629 1004.84 171.629C1005.21 171.629 1005.53 171.709 1005.81 171.868C1006.09 172.028 1006.3 172.257 1006.45 172.557C1006.6 172.856 1006.68 173.211 1006.68 173.621V177H1005.23V173.87C1005.23 173.652 1005.19 173.465 1005.12 173.309C1005.04 173.152 1004.93 173.034 1004.79 172.952C1004.65 172.871 1004.47 172.83 1004.27 172.83C1004.07 172.83 1003.89 172.874 1003.74 172.962C1003.58 173.047 1003.46 173.172 1003.37 173.338C1003.28 173.504 1003.24 173.701 1003.24 173.929V177ZM1010.01 177.103C1009.47 177.103 1009.01 176.992 1008.61 176.771C1008.21 176.549 1007.91 176.233 1007.7 175.823C1007.48 175.413 1007.38 174.931 1007.38 174.378C1007.38 173.831 1007.48 173.351 1007.7 172.938C1007.91 172.521 1008.21 172.199 1008.6 171.971C1008.99 171.743 1009.44 171.629 1009.95 171.629C1010.43 171.629 1010.85 171.73 1011.23 171.932C1011.6 172.13 1011.89 172.431 1012.11 172.835C1012.32 173.239 1012.43 173.732 1012.43 174.314V174.72H1007.97V173.816H1011.07C1011.07 173.602 1011.02 173.411 1010.93 173.245C1010.83 173.076 1010.7 172.944 1010.54 172.85C1010.37 172.755 1010.18 172.708 1009.97 172.708C1009.75 172.708 1009.55 172.76 1009.37 172.864C1009.19 172.965 1009.06 173.105 1008.96 173.284C1008.86 173.463 1008.81 173.659 1008.8 173.87V174.72C1008.8 174.983 1008.85 175.215 1008.96 175.413C1009.06 175.612 1009.2 175.763 1009.38 175.867C1009.57 175.971 1009.78 176.023 1010.02 176.023C1010.19 176.023 1010.34 176.001 1010.47 175.955C1010.6 175.906 1010.71 175.844 1010.81 175.77C1010.9 175.691 1010.97 175.6 1011.02 175.496H1012.4C1012.33 175.818 1012.19 176.102 1011.97 176.346C1011.76 176.587 1011.49 176.774 1011.15 176.907C1010.81 177.037 1010.43 177.103 1010.01 177.103ZM1000.29 187.21C1000.23 186.985 1000.13 186.793 999.985 186.634C999.845 186.471 999.674 186.347 999.473 186.263C999.274 186.175 999.045 186.131 998.784 186.131C998.42 186.131 998.099 186.222 997.822 186.404C997.549 186.587 997.334 186.854 997.178 187.205C997.025 187.553 996.948 187.972 996.948 188.46C996.948 188.951 997.023 189.373 997.173 189.725C997.326 190.073 997.541 190.34 997.817 190.525C998.097 190.708 998.424 190.799 998.799 190.799C999.137 190.799 999.429 190.737 999.673 190.613C999.92 190.49 1000.11 190.315 1000.23 190.091C1000.36 189.863 1000.43 189.598 1000.43 189.295L1000.73 189.339H998.896V188.221H1001.85V189.109C1001.85 189.718 1001.72 190.249 1001.46 190.701C1001.19 191.15 1000.83 191.495 1000.37 191.736C999.912 191.977 999.386 192.098 998.794 192.098C998.136 192.098 997.555 191.951 997.051 191.658C996.549 191.362 996.159 190.94 995.879 190.394C995.602 189.847 995.464 189.205 995.464 188.47C995.464 187.724 995.607 187.078 995.894 186.531C996.183 185.981 996.577 185.561 997.075 185.271C997.573 184.979 998.135 184.832 998.76 184.832C999.287 184.832 999.769 184.933 1000.21 185.135C1000.64 185.337 1001 185.617 1001.27 185.975C1001.55 186.333 1001.72 186.744 1001.78 187.21H1000.29ZM1002.69 186.697H1004.09V187.62H1004.15C1004.24 187.295 1004.4 187.047 1004.63 186.878C1004.86 186.705 1005.12 186.619 1005.42 186.619C1005.58 186.619 1005.73 186.635 1005.88 186.668V187.957C1005.82 187.934 1005.73 187.916 1005.61 187.903C1005.48 187.887 1005.37 187.879 1005.26 187.879C1005.05 187.879 1004.86 187.926 1004.69 188.021C1004.52 188.112 1004.38 188.242 1004.28 188.411C1004.18 188.577 1004.14 188.769 1004.14 188.987V192H1002.69V186.697ZM1008.63 192.103C1008.09 192.103 1007.63 191.992 1007.23 191.771C1006.84 191.549 1006.53 191.233 1006.32 190.823C1006.11 190.413 1006 189.931 1006 189.378C1006 188.831 1006.11 188.351 1006.32 187.938C1006.53 187.521 1006.83 187.199 1007.22 186.971C1007.61 186.743 1008.06 186.629 1008.57 186.629C1009.05 186.629 1009.47 186.73 1009.85 186.932C1010.22 187.13 1010.52 187.431 1010.73 187.835C1010.95 188.239 1011.06 188.732 1011.06 189.314V189.72H1006.59V188.816H1009.69C1009.69 188.602 1009.65 188.411 1009.55 188.245C1009.46 188.076 1009.33 187.944 1009.16 187.85C1008.99 187.755 1008.81 187.708 1008.59 187.708C1008.37 187.708 1008.17 187.76 1007.99 187.864C1007.82 187.965 1007.68 188.105 1007.58 188.284C1007.48 188.463 1007.43 188.659 1007.43 188.87V189.72C1007.43 189.983 1007.48 190.215 1007.58 190.413C1007.68 190.612 1007.82 190.763 1008 190.867C1008.19 190.971 1008.4 191.023 1008.65 191.023C1008.81 191.023 1008.96 191.001 1009.09 190.955C1009.23 190.906 1009.34 190.844 1009.43 190.77C1009.52 190.691 1009.6 190.6 1009.64 190.496H1011.02C1010.95 190.818 1010.81 191.102 1010.6 191.346C1010.38 191.587 1010.11 191.774 1009.77 191.907C1009.44 192.037 1009.05 192.103 1008.63 192.103ZM1014.87 189.71C1014.74 189.713 1014.51 189.726 1014.19 189.749L1013.72 189.788C1013.46 189.808 1013.26 189.878 1013.11 189.998C1012.96 190.115 1012.89 190.275 1012.89 190.477C1012.89 190.607 1012.92 190.717 1012.99 190.809C1013.06 190.9 1013.15 190.97 1013.27 191.019C1013.4 191.067 1013.53 191.092 1013.69 191.092C1013.91 191.092 1014.1 191.049 1014.27 190.965C1014.44 190.877 1014.57 190.758 1014.66 190.608C1014.76 190.455 1014.81 190.288 1014.81 190.105L1014.8 188.392C1014.8 188.242 1014.76 188.115 1014.7 188.011C1014.64 187.903 1014.54 187.824 1014.41 187.771C1014.28 187.716 1014.13 187.688 1013.96 187.688C1013.71 187.688 1013.51 187.741 1013.36 187.845C1013.21 187.946 1013.11 188.089 1013.07 188.274H1011.69C1011.73 187.962 1011.84 187.682 1012.02 187.435C1012.21 187.184 1012.47 186.987 1012.8 186.844C1013.14 186.701 1013.53 186.629 1013.99 186.629C1014.4 186.629 1014.77 186.692 1015.11 186.819C1015.45 186.946 1015.72 187.145 1015.93 187.415C1016.14 187.682 1016.24 188.019 1016.24 188.426V192H1014.87V191.268H1014.83C1014.74 191.434 1014.63 191.578 1014.48 191.702C1014.34 191.826 1014.17 191.924 1013.97 191.995C1013.77 192.063 1013.54 192.098 1013.27 192.098C1012.93 192.098 1012.63 192.037 1012.36 191.917C1012.1 191.797 1011.89 191.618 1011.74 191.38C1011.59 191.142 1011.51 190.856 1011.51 190.521C1011.51 189.967 1011.69 189.565 1012.06 189.314C1012.42 189.064 1012.9 188.921 1013.48 188.885C1013.58 188.875 1013.88 188.859 1014.39 188.836L1014.86 188.816L1014.87 189.71ZM1019.93 187.781H1016.76V186.697H1019.93V187.781ZM1018.94 185.428V190.369C1018.94 190.506 1018.96 190.613 1018.99 190.691C1019.04 190.766 1019.09 190.82 1019.17 190.853C1019.24 190.882 1019.33 190.898 1019.44 190.901C1019.58 190.905 1019.76 190.896 1020.01 190.877V192.02C1019.79 192.055 1019.54 192.073 1019.25 192.073C1018.89 192.073 1018.58 192.02 1018.32 191.912C1018.05 191.801 1017.85 191.634 1017.7 191.409C1017.55 191.185 1017.48 190.905 1017.49 190.569V185.428H1018.94ZM996.255 207V205.74H998.027C998.483 205.74 998.862 205.659 999.165 205.496C999.468 205.333 999.696 205.084 999.849 204.749C1000 204.41 1000.08 203.981 1000.08 203.46C1000.08 202.939 1000 202.511 999.849 202.176C999.699 201.837 999.473 201.588 999.17 201.429C998.867 201.269 998.49 201.189 998.037 201.189H996.221V199.93H998.11C998.82 199.93 999.432 200.071 999.946 200.354C1000.46 200.634 1000.86 201.04 1001.13 201.57C1001.41 202.101 1001.55 202.731 1001.55 203.46C1001.55 204.192 1001.41 204.824 1001.13 205.354C1000.86 205.885 1000.46 206.292 999.937 206.575C999.419 206.858 998.804 207 998.091 207H996.255ZM997.065 207H995.601V199.93H997.065V207ZM1002.38 201.697H1003.82V207H1002.38V201.697ZM1003.1 200.999C1002.96 200.999 1002.83 200.966 1002.71 200.901C1002.58 200.836 1002.49 200.747 1002.42 200.633C1002.35 200.519 1002.31 200.397 1002.31 200.267C1002.31 200.133 1002.35 200.011 1002.42 199.9C1002.49 199.786 1002.58 199.697 1002.71 199.632C1002.83 199.567 1002.96 199.534 1003.1 199.534C1003.24 199.534 1003.38 199.567 1003.5 199.632C1003.62 199.697 1003.71 199.786 1003.78 199.9C1003.85 200.011 1003.89 200.133 1003.89 200.267C1003.89 200.397 1003.85 200.519 1003.78 200.633C1003.71 200.747 1003.62 200.836 1003.5 200.901C1003.38 200.966 1003.24 200.999 1003.1 200.999ZM1007.8 207H1006.18L1004.32 201.697H1005.85L1006.96 205.506H1007.02L1008.14 201.697H1009.67L1007.8 207ZM1010.18 201.697H1011.63V207H1010.18V201.697ZM1010.9 200.999C1010.76 200.999 1010.63 200.966 1010.51 200.901C1010.39 200.836 1010.29 200.747 1010.22 200.633C1010.15 200.519 1010.11 200.397 1010.11 200.267C1010.11 200.133 1010.15 200.011 1010.22 199.9C1010.29 199.786 1010.39 199.697 1010.51 199.632C1010.63 199.567 1010.76 199.534 1010.9 199.534C1011.05 199.534 1011.18 199.567 1011.3 199.632C1011.42 199.697 1011.51 199.786 1011.58 199.9C1011.65 200.011 1011.69 200.133 1011.69 200.267C1011.69 200.397 1011.65 200.519 1011.58 200.633C1011.51 200.747 1011.42 200.836 1011.3 200.901C1011.18 200.966 1011.05 200.999 1010.9 200.999ZM1014.5 207.083C1014.1 207.083 1013.73 206.977 1013.4 206.766C1013.07 206.554 1012.82 206.243 1012.63 205.833C1012.44 205.42 1012.35 204.926 1012.35 204.354C1012.35 203.768 1012.45 203.27 1012.64 202.859C1012.83 202.449 1013.09 202.142 1013.41 201.937C1013.73 201.731 1014.1 201.629 1014.5 201.629C1014.78 201.629 1015.02 201.676 1015.23 201.771C1015.43 201.862 1015.59 201.976 1015.7 202.112C1015.82 202.249 1015.92 202.407 1016.01 202.586H1016.05V199.93H1017.5V207H1016.08V206.155H1016.01C1015.92 206.331 1015.81 206.484 1015.69 206.614C1015.58 206.744 1015.42 206.855 1015.22 206.946C1015.01 207.037 1014.78 207.083 1014.5 207.083ZM1014.95 205.931C1015.19 205.931 1015.39 205.866 1015.56 205.735C1015.73 205.605 1015.87 205.42 1015.95 205.179C1016.04 204.938 1016.09 204.66 1016.09 204.344C1016.09 204.025 1016.05 203.748 1015.96 203.514C1015.87 203.279 1015.74 203.1 1015.57 202.977C1015.4 202.85 1015.19 202.786 1014.95 202.786C1014.71 202.786 1014.51 202.851 1014.34 202.981C1014.17 203.108 1014.04 203.289 1013.95 203.523C1013.87 203.758 1013.82 204.031 1013.82 204.344C1013.82 204.656 1013.87 204.933 1013.95 205.174C1014.04 205.411 1014.17 205.597 1014.34 205.73C1014.51 205.864 1014.71 205.931 1014.95 205.931ZM1020.87 207.103C1020.34 207.103 1019.87 206.992 1019.47 206.771C1019.08 206.549 1018.78 206.233 1018.56 205.823C1018.35 205.413 1018.24 204.931 1018.24 204.378C1018.24 203.831 1018.35 203.351 1018.56 202.938C1018.78 202.521 1019.08 202.199 1019.46 201.971C1019.85 201.743 1020.3 201.629 1020.81 201.629C1021.29 201.629 1021.72 201.73 1022.09 201.932C1022.47 202.13 1022.76 202.431 1022.97 202.835C1023.19 203.239 1023.3 203.732 1023.3 204.314V204.72H1018.83V203.816H1021.93C1021.93 203.602 1021.89 203.411 1021.79 203.245C1021.7 203.076 1021.57 202.944 1021.4 202.85C1021.24 202.755 1021.05 202.708 1020.84 202.708C1020.61 202.708 1020.41 202.76 1020.24 202.864C1020.06 202.965 1019.92 203.105 1019.82 203.284C1019.72 203.463 1019.67 203.659 1019.67 203.87V204.72C1019.67 204.983 1019.72 205.215 1019.82 205.413C1019.92 205.612 1020.06 205.763 1020.25 205.867C1020.43 205.971 1020.65 206.023 1020.89 206.023C1021.05 206.023 1021.2 206.001 1021.33 205.955C1021.47 205.906 1021.58 205.844 1021.67 205.77C1021.77 205.691 1021.84 205.6 1021.89 205.496H1023.26C1023.19 205.818 1023.05 206.102 1022.84 206.346C1022.63 206.587 1022.35 206.774 1022.01 206.907C1021.68 207.037 1021.3 207.103 1020.87 207.103Z" fill="white"/>
<path d="M979 24L973.226 34H984.774L979 24ZM979 350L984.774 340H973.226L979 350ZM979 33H978V341H979H980V33H979Z" fill="white"/>
<path d="M868.447 50.4287C868.447 51.1286 868.348 51.7959 868.149 52.4307C867.954 53.0622 867.666 53.6237 867.285 54.1152C866.904 54.6068 866.445 54.9779 865.908 55.2285L865.195 54.2471C865.674 54.029 866.081 53.7181 866.416 53.3145C866.755 52.9108 867.008 52.46 867.178 51.9619C867.35 51.4606 867.437 50.9495 867.437 50.4287V49.3936H868.447V50.4287ZM868.706 50.4287C868.706 50.9235 868.791 51.4069 868.96 51.8789C869.129 52.3509 869.382 52.7773 869.717 53.1582C870.052 53.5358 870.459 53.8239 870.938 54.0225L870.264 54.999C869.714 54.7614 869.248 54.4115 868.867 53.9492C868.486 53.487 868.2 52.9548 868.008 52.3525C867.819 51.7471 867.725 51.1058 867.725 50.4287V49.3936H868.706V50.4287ZM870.571 49.8867H865.552V48.8711H870.571V49.8867ZM872.705 56.8984H871.44V48.002H872.705V56.8984ZM875.132 50.8047H876.343V48.8027H877.495V54.7939H873.955V48.8027H875.132V50.8047ZM876.343 53.793V51.7812H875.132V53.793H876.343ZM881.411 56.8984H880.215V48.002H881.411V56.8984ZM880.591 52.416H879.082V51.4053H880.591V52.416ZM879.414 56.4883H878.242V48.1387H879.414V56.4883ZM890.259 53.3975H882.154V52.3916H890.259V53.3975ZM886.807 49.3447H885.572V48.0361H886.807V49.3447ZM886.587 49.5645C886.587 50.0169 886.442 50.4189 886.153 50.7705C885.866 51.1188 885.445 51.402 884.888 51.6201C884.331 51.835 883.658 51.9717 882.867 52.0303L882.486 51.0928C883.166 51.0505 883.732 50.9528 884.185 50.7998C884.637 50.6468 884.968 50.4645 885.176 50.2529C885.388 50.0413 885.494 49.8118 885.494 49.5645V49.3887H886.587V49.5645ZM886.89 49.5645C886.89 49.8053 886.994 50.0332 887.203 50.248C887.414 50.4629 887.745 50.6468 888.194 50.7998C888.646 50.9528 889.213 51.0505 889.893 51.0928L889.517 52.0303C888.729 51.9717 888.055 51.835 887.496 51.6201C886.939 51.402 886.516 51.1188 886.226 50.7705C885.94 50.4189 885.796 50.0169 885.796 49.5645V49.3887H886.89V49.5645ZM889.473 49.7891H882.93V48.8027H889.473V49.7891ZM886.192 53.876C886.846 53.876 887.403 53.9346 887.862 54.0518C888.321 54.1689 888.672 54.3415 888.916 54.5693C889.164 54.7939 889.288 55.0658 889.288 55.3848C889.288 55.707 889.165 55.9821 888.921 56.21C888.677 56.4378 888.324 56.6087 887.862 56.7227C887.399 56.8398 886.843 56.8984 886.192 56.8984C885.541 56.8984 884.982 56.8398 884.517 56.7227C884.051 56.6087 883.695 56.4378 883.448 56.21C883.2 55.9821 883.077 55.707 883.077 55.3848C883.077 55.0658 883.2 54.7939 883.448 54.5693C883.695 54.3415 884.051 54.1689 884.517 54.0518C884.982 53.9346 885.541 53.876 886.192 53.876ZM886.192 54.7988C885.775 54.7988 885.43 54.82 885.157 54.8623C884.883 54.9014 884.68 54.9648 884.546 55.0527C884.413 55.1406 884.346 55.2513 884.346 55.3848C884.346 55.5182 884.413 55.6289 884.546 55.7168C884.68 55.8047 884.882 55.8698 885.152 55.9121C885.425 55.9544 885.772 55.9756 886.192 55.9756C886.602 55.9756 886.942 55.9544 887.212 55.9121C887.486 55.8698 887.691 55.8047 887.828 55.7168C887.964 55.6289 888.033 55.5182 888.033 55.3848C888.033 55.2513 887.964 55.1406 887.828 55.0527C887.691 54.9648 887.487 54.9014 887.217 54.8623C886.947 54.82 886.605 54.7988 886.192 54.7988ZM893.219 53.3047C893.222 52.4128 893.352 51.5811 893.609 50.8096C893.87 50.0381 894.242 49.3105 894.727 48.627H896.104C895.873 48.9622 895.652 49.3887 895.44 49.9062C895.229 50.4206 895.056 50.9756 894.923 51.5713C894.792 52.167 894.727 52.7448 894.727 53.3047C894.727 53.8646 894.792 54.444 894.923 55.043C895.056 55.6387 895.229 56.1937 895.44 56.708C895.652 57.2223 895.873 57.6504 896.104 57.9922H894.727C894.246 57.3021 893.874 56.5713 893.614 55.7998C893.354 55.0251 893.222 54.1934 893.219 53.3047ZM896.739 48.9297H898.204V54.7891H901.246V56H896.739V48.9297ZM904.371 56.1025C903.837 56.1025 903.372 55.9919 902.975 55.7705C902.581 55.5492 902.277 55.2334 902.062 54.8232C901.85 54.4131 901.744 53.9313 901.744 53.3779C901.744 52.8311 901.85 52.3509 902.062 51.9375C902.277 51.5208 902.578 51.1986 902.965 50.9707C903.352 50.7428 903.802 50.6289 904.313 50.6289C904.791 50.6289 905.218 50.7298 905.592 50.9316C905.966 51.1302 906.261 51.4313 906.476 51.835C906.691 52.2386 906.798 52.7318 906.798 53.3145V53.7197H902.335V52.8164H905.436C905.436 52.6016 905.389 52.4111 905.294 52.2451C905.2 52.0758 905.07 51.944 904.904 51.8496C904.737 51.7552 904.549 51.708 904.337 51.708C904.112 51.708 903.912 51.7601 903.737 51.8643C903.561 51.9652 903.422 52.1051 903.321 52.2842C903.224 52.4632 903.173 52.6585 903.17 52.8701V53.7197C903.17 53.9834 903.221 54.2145 903.321 54.4131C903.422 54.6117 903.564 54.763 903.746 54.8672C903.932 54.9714 904.147 55.0234 904.391 55.0234C904.554 55.0234 904.702 55.0007 904.835 54.9551C904.969 54.9062 905.081 54.8444 905.172 54.7695C905.266 54.6914 905.338 54.6003 905.387 54.4961H906.764C906.696 54.8184 906.554 55.1016 906.339 55.3457C906.127 55.5866 905.852 55.7738 905.514 55.9072C905.179 56.0374 904.798 56.1025 904.371 56.1025ZM910.617 53.71C910.486 53.7132 910.257 53.7262 909.928 53.749L909.459 53.7881C909.202 53.8076 909 53.8776 908.854 53.998C908.707 54.1152 908.634 54.2747 908.634 54.4766C908.634 54.6068 908.667 54.7174 908.732 54.8086C908.8 54.8997 908.895 54.9697 909.015 55.0186C909.139 55.0674 909.277 55.0918 909.43 55.0918C909.648 55.0918 909.842 55.0495 910.011 54.9648C910.18 54.877 910.312 54.7581 910.407 54.6084C910.501 54.4554 910.548 54.2878 910.548 54.1055L910.538 52.3916C910.538 52.2419 910.506 52.1149 910.441 52.0107C910.379 51.9033 910.283 51.8236 910.153 51.7715C910.026 51.7161 909.874 51.6885 909.699 51.6885C909.454 51.6885 909.256 51.7406 909.103 51.8447C908.95 51.9456 908.854 52.0889 908.815 52.2744H907.438C907.47 51.9619 907.579 51.682 907.765 51.4346C907.954 51.1839 908.214 50.987 908.546 50.8438C908.882 50.7005 909.277 50.6289 909.733 50.6289C910.143 50.6289 910.517 50.6924 910.856 50.8193C911.194 50.9463 911.466 51.1449 911.671 51.415C911.88 51.682 911.984 52.0189 911.984 52.4258V56H910.612V55.2676H910.573C910.485 55.4336 910.369 55.5785 910.226 55.7021C910.083 55.8258 909.91 55.9235 909.708 55.9951C909.51 56.0635 909.279 56.0977 909.015 56.0977C908.673 56.0977 908.371 56.0374 908.107 55.917C907.843 55.7965 907.635 55.6175 907.482 55.3799C907.329 55.1423 907.252 54.8558 907.252 54.5205C907.252 53.9671 907.435 53.5651 907.799 53.3145C908.167 53.0638 908.642 52.9206 909.225 52.8848C909.323 52.875 909.624 52.8587 910.128 52.8359L910.607 52.8164L910.617 53.71ZM914.836 56.083C914.429 56.083 914.061 55.9772 913.732 55.7656C913.407 55.554 913.149 55.2432 912.961 54.833C912.775 54.4196 912.682 53.9264 912.682 53.3535C912.682 52.7676 912.778 52.2695 912.97 51.8594C913.162 51.4492 913.42 51.1416 913.742 50.9365C914.067 50.7314 914.432 50.6289 914.836 50.6289C915.115 50.6289 915.356 50.6761 915.558 50.7705C915.76 50.8617 915.92 50.9756 916.037 51.1123C916.154 51.249 916.255 51.4069 916.339 51.5859H916.383V48.9297H917.829V56H916.408V55.1553H916.339C916.252 55.3311 916.147 55.484 916.027 55.6143C915.91 55.7445 915.75 55.8551 915.548 55.9463C915.347 56.0374 915.109 56.083 914.836 56.083ZM915.285 54.9307C915.522 54.9307 915.726 54.8656 915.895 54.7354C916.068 54.6051 916.198 54.4196 916.286 54.1787C916.377 53.9378 916.422 53.6595 916.422 53.3438C916.422 53.0247 916.379 52.748 916.291 52.5137C916.203 52.2793 916.073 52.1003 915.9 51.9766C915.731 51.8496 915.526 51.7861 915.285 51.7861C915.044 51.7861 914.839 51.8512 914.67 51.9814C914.5 52.1084 914.372 52.2891 914.284 52.5234C914.199 52.7578 914.157 53.0312 914.157 53.3438C914.157 53.6562 914.199 53.9329 914.284 54.1738C914.372 54.4115 914.5 54.597 914.67 54.7305C914.839 54.8639 915.044 54.9307 915.285 54.9307ZM921.203 56.1025C920.669 56.1025 920.204 55.9919 919.806 55.7705C919.413 55.5492 919.108 55.2334 918.893 54.8232C918.682 54.4131 918.576 53.9313 918.576 53.3779C918.576 52.8311 918.682 52.3509 918.893 51.9375C919.108 51.5208 919.409 51.1986 919.797 50.9707C920.184 50.7428 920.633 50.6289 921.144 50.6289C921.623 50.6289 922.049 50.7298 922.424 50.9316C922.798 51.1302 923.093 51.4313 923.307 51.835C923.522 52.2386 923.63 52.7318 923.63 53.3145V53.7197H919.167V52.8164H922.267C922.267 52.6016 922.22 52.4111 922.126 52.2451C922.031 52.0758 921.901 51.944 921.735 51.8496C921.569 51.7552 921.38 51.708 921.169 51.708C920.944 51.708 920.744 51.7601 920.568 51.8643C920.392 51.9652 920.254 52.1051 920.153 52.2842C920.055 52.4632 920.005 52.6585 920.002 52.8701V53.7197C920.002 53.9834 920.052 54.2145 920.153 54.4131C920.254 54.6117 920.396 54.763 920.578 54.8672C920.763 54.9714 920.978 55.0234 921.222 55.0234C921.385 55.0234 921.533 55.0007 921.667 54.9551C921.8 54.9062 921.913 54.8444 922.004 54.7695C922.098 54.6914 922.17 54.6003 922.219 54.4961H923.596C923.527 54.8184 923.386 55.1016 923.171 55.3457C922.959 55.5866 922.684 55.7738 922.346 55.9072C922.01 56.0374 921.629 56.1025 921.203 56.1025ZM924.338 50.6973H925.734V51.6201H925.793C925.887 51.2946 926.049 51.0472 926.276 50.8779C926.504 50.7054 926.768 50.6191 927.067 50.6191C927.224 50.6191 927.378 50.6354 927.531 50.668V51.957C927.469 51.9342 927.377 51.9163 927.253 51.9033C927.129 51.887 927.015 51.8789 926.911 51.8789C926.696 51.8789 926.504 51.9261 926.335 52.0205C926.166 52.1117 926.031 52.2419 925.93 52.4111C925.832 52.5771 925.783 52.7692 925.783 52.9873V56H924.338V50.6973ZM931.062 52.2744C931.029 52.0791 930.936 51.9277 930.783 51.8203C930.63 51.7129 930.433 51.6592 930.193 51.6592C930.036 51.6592 929.896 51.682 929.773 51.7275C929.649 51.7699 929.55 51.8333 929.475 51.918C929.403 51.9993 929.367 52.0921 929.367 52.1963C929.364 52.32 929.416 52.4274 929.524 52.5186C929.634 52.6097 929.81 52.6797 930.051 52.7285L931.008 52.9238C931.522 53.028 931.905 53.1989 932.155 53.4365C932.409 53.6709 932.536 53.9785 932.536 54.3594C932.536 54.7044 932.437 55.0088 932.238 55.2725C932.043 55.5329 931.768 55.7363 931.413 55.8828C931.062 56.0293 930.652 56.1025 930.183 56.1025C929.711 56.1025 929.302 56.0358 928.957 55.9023C928.615 55.7656 928.345 55.5736 928.147 55.3262C927.948 55.0755 927.829 54.7777 927.79 54.4326H929.24C929.283 54.6344 929.384 54.7891 929.543 54.8965C929.706 55.0007 929.921 55.0527 930.188 55.0527C930.36 55.0527 930.512 55.0316 930.642 54.9893C930.775 54.9469 930.878 54.8851 930.949 54.8037C931.024 54.7191 931.062 54.6214 931.062 54.5107C931.062 54.3675 931.003 54.252 930.886 54.1641C930.772 54.0762 930.591 54.0078 930.344 53.959L929.465 53.7832C928.957 53.6823 928.573 53.5049 928.313 53.251C928.056 52.9971 927.929 52.6748 927.932 52.2842C927.932 51.9456 928.023 51.6527 928.205 51.4053C928.388 51.1546 928.646 50.9626 928.982 50.8291C929.32 50.6956 929.717 50.6289 930.173 50.6289C930.616 50.6289 931.001 50.6956 931.33 50.8291C931.659 50.9626 931.916 51.153 932.102 51.4004C932.287 51.6478 932.391 51.9391 932.414 52.2744H931.062ZM935.388 50.8096C935.649 51.5811 935.78 52.4128 935.784 53.3047C935.78 54.1934 935.649 55.0251 935.388 55.7998C935.128 56.5713 934.757 57.3021 934.275 57.9922H932.898C933.129 57.6504 933.35 57.2223 933.562 56.708C933.774 56.1937 933.944 55.6387 934.075 55.043C934.208 54.444 934.275 53.8646 934.275 53.3047C934.275 52.7448 934.208 52.167 934.075 51.5713C933.944 50.9756 933.774 50.4206 933.562 49.9062C933.35 49.3887 933.129 48.9622 932.898 48.627H934.275C934.76 49.3105 935.131 50.0381 935.388 50.8096Z" fill="white"/>
<path d="M660.712 134L663.642 125.516H665.903L668.839 134H666.946L664.808 127.432H664.737L662.593 134H660.712ZM667.028 130.666V132.043H662.499V130.666H667.028ZM671.318 134H669.56V125.516H671.318V134ZM675.056 125.516H678.373C679.014 125.516 679.56 125.629 680.014 125.855C680.471 126.078 680.818 126.398 681.056 126.816C681.295 127.234 681.414 127.723 681.414 128.281C681.414 128.836 681.293 129.318 681.051 129.729C680.812 130.135 680.461 130.447 679.996 130.666C679.531 130.881 678.976 130.988 678.332 130.988H676.088V129.553H678.056C678.408 129.553 678.697 129.506 678.924 129.412C679.15 129.314 679.32 129.172 679.433 128.984C679.547 128.797 679.603 128.562 679.603 128.281C679.603 127.992 679.547 127.75 679.433 127.555C679.32 127.359 679.148 127.213 678.918 127.115C678.687 127.014 678.398 126.963 678.051 126.963H676.814V134H675.056V125.516ZM681.719 134H679.762L677.705 130.145H679.609L681.719 134ZM685.152 134.123C684.512 134.123 683.953 133.99 683.477 133.725C683.004 133.459 682.639 133.08 682.381 132.588C682.127 132.096 682 131.518 682 130.854C682 130.197 682.127 129.621 682.381 129.125C682.639 128.625 683 128.238 683.465 127.965C683.93 127.691 684.469 127.555 685.082 127.555C685.656 127.555 686.168 127.676 686.617 127.918C687.066 128.156 687.42 128.518 687.678 129.002C687.936 129.486 688.065 130.078 688.065 130.777V131.264H682.709V130.18H686.43C686.43 129.922 686.373 129.693 686.26 129.494C686.147 129.291 685.99 129.133 685.791 129.02C685.592 128.906 685.365 128.85 685.111 128.85C684.842 128.85 684.602 128.912 684.391 129.037C684.18 129.158 684.014 129.326 683.893 129.541C683.775 129.756 683.715 129.99 683.711 130.244V131.264C683.711 131.58 683.772 131.857 683.893 132.096C684.014 132.334 684.184 132.516 684.402 132.641C684.625 132.766 684.883 132.828 685.176 132.828C685.371 132.828 685.549 132.801 685.709 132.746C685.869 132.688 686.004 132.613 686.113 132.523C686.227 132.43 686.313 132.32 686.371 132.195H688.024C687.941 132.582 687.772 132.922 687.514 133.215C687.26 133.504 686.93 133.729 686.524 133.889C686.121 134.045 685.664 134.123 685.152 134.123ZM692.395 134H690.444L688.217 127.637H690.057L691.387 132.207H691.457L692.793 127.637H694.633L692.395 134ZM697.891 134.123C697.258 134.123 696.706 133.986 696.233 133.713C695.76 133.439 695.397 133.055 695.143 132.559C694.889 132.062 694.762 131.49 694.762 130.842C694.762 130.186 694.889 129.611 695.143 129.119C695.397 128.623 695.76 128.238 696.233 127.965C696.706 127.691 697.258 127.555 697.891 127.555C698.52 127.555 699.071 127.691 699.544 127.965C700.02 128.238 700.383 128.623 700.633 129.119C700.883 129.611 701.008 130.186 701.008 130.842C701.008 131.49 700.883 132.062 700.633 132.559C700.383 133.055 700.02 133.439 699.544 133.713C699.071 133.986 698.52 134.123 697.891 134.123ZM697.903 132.781C698.192 132.781 698.436 132.697 698.635 132.529C698.838 132.361 698.991 132.131 699.092 131.838C699.194 131.541 699.245 131.205 699.245 130.83C699.245 130.451 699.194 130.115 699.092 129.822C698.991 129.529 698.838 129.299 698.635 129.131C698.436 128.963 698.192 128.879 697.903 128.879C697.606 128.879 697.354 128.963 697.147 129.131C696.94 129.299 696.784 129.529 696.678 129.822C696.573 130.111 696.52 130.447 696.52 130.83C696.52 131.209 696.573 131.545 696.678 131.838C696.784 132.131 696.94 132.361 697.147 132.529C697.354 132.697 697.606 132.781 697.903 132.781ZM703.598 134H701.864V125.516H703.598V134ZM708.79 127.637H710.513V134H708.855V132.852H708.784C708.632 133.23 708.39 133.531 708.058 133.754C707.726 133.973 707.325 134.082 706.856 134.082C706.435 134.082 706.062 133.986 705.737 133.795C705.413 133.6 705.159 133.322 704.976 132.963C704.796 132.6 704.706 132.174 704.706 131.686V127.637H706.44V131.387C706.44 131.633 706.485 131.85 706.575 132.037C706.665 132.221 706.794 132.363 706.962 132.465C707.134 132.562 707.329 132.611 707.548 132.611C707.771 132.611 707.976 132.561 708.163 132.459C708.355 132.357 708.507 132.205 708.62 132.002C708.733 131.799 708.79 131.561 708.79 131.287V127.637ZM714.978 128.938H711.169V127.637H714.978V128.938ZM713.782 126.113V132.043C713.782 132.207 713.806 132.336 713.853 132.43C713.904 132.52 713.972 132.584 714.058 132.623C714.148 132.658 714.257 132.678 714.386 132.682C714.55 132.686 714.777 132.676 715.066 132.652V134.023C714.804 134.066 714.501 134.088 714.157 134.088C713.728 134.088 713.355 134.023 713.038 133.895C712.722 133.762 712.476 133.561 712.3 133.291C712.124 133.021 712.038 132.686 712.042 132.283V126.113H713.782ZM715.828 127.637H717.562V134H715.828V127.637ZM716.695 126.799C716.523 126.799 716.365 126.76 716.22 126.682C716.076 126.604 715.96 126.496 715.875 126.359C715.789 126.223 715.746 126.076 715.746 125.92C715.746 125.76 715.789 125.613 715.875 125.48C715.96 125.344 716.076 125.236 716.22 125.158C716.365 125.08 716.523 125.041 716.695 125.041C716.867 125.041 717.025 125.08 717.169 125.158C717.314 125.236 717.427 125.344 717.509 125.48C717.595 125.613 717.638 125.76 717.638 125.92C717.638 126.076 717.595 126.223 717.509 126.359C717.427 126.496 717.314 126.604 717.169 126.682C717.025 126.76 716.867 126.799 716.695 126.799ZM721.535 134.123C720.902 134.123 720.349 133.986 719.877 133.713C719.404 133.439 719.041 133.055 718.787 132.559C718.533 132.062 718.406 131.49 718.406 130.842C718.406 130.186 718.533 129.611 718.787 129.119C719.041 128.623 719.404 128.238 719.877 127.965C720.349 127.691 720.902 127.555 721.535 127.555C722.164 127.555 722.715 127.691 723.187 127.965C723.664 128.238 724.027 128.623 724.277 129.119C724.527 129.611 724.652 130.186 724.652 130.842C724.652 131.49 724.527 132.062 724.277 132.559C724.027 133.055 723.664 133.439 723.187 133.713C722.715 133.986 722.164 134.123 721.535 134.123ZM721.547 132.781C721.836 132.781 722.08 132.697 722.279 132.529C722.482 132.361 722.635 132.131 722.736 131.838C722.838 131.541 722.888 131.205 722.888 130.83C722.888 130.451 722.838 130.115 722.736 129.822C722.635 129.529 722.482 129.299 722.279 129.131C722.08 128.963 721.836 128.879 721.547 128.879C721.25 128.879 720.998 128.963 720.791 129.131C720.584 129.299 720.427 129.529 720.322 129.822C720.217 130.111 720.164 130.447 720.164 130.83C720.164 131.209 720.217 131.545 720.322 131.838C720.427 132.131 720.584 132.361 720.791 132.529C720.998 132.697 721.25 132.781 721.547 132.781ZM727.242 134H725.508V127.637H727.16V128.75H727.23C727.379 128.375 727.617 128.082 727.945 127.871C728.277 127.66 728.678 127.555 729.146 127.555C729.588 127.555 729.973 127.65 730.301 127.842C730.629 128.033 730.883 128.309 731.062 128.668C731.246 129.027 731.338 129.453 731.338 129.945V134H729.604V130.244C729.604 129.982 729.559 129.76 729.469 129.576C729.383 129.389 729.254 129.246 729.082 129.148C728.91 129.047 728.703 128.996 728.461 128.996C728.219 128.996 728.006 129.049 727.822 129.154C727.639 129.256 727.496 129.406 727.395 129.605C727.293 129.801 727.242 130.037 727.242 130.314V134ZM649.099 148.766C649.103 147.695 649.259 146.697 649.568 145.771C649.88 144.846 650.327 143.973 650.91 143.152H652.562C652.285 143.555 652.019 144.066 651.765 144.688C651.511 145.305 651.304 145.971 651.144 146.686C650.988 147.4 650.91 148.094 650.91 148.766C650.91 149.438 650.988 150.133 651.144 150.852C651.304 151.566 651.511 152.232 651.765 152.85C652.019 153.467 652.285 153.98 652.562 154.391H650.91C650.331 153.562 649.886 152.686 649.574 151.76C649.261 150.83 649.103 149.832 649.099 148.766ZM652.849 152L655.779 143.516H658.041L660.976 152H659.084L656.945 145.432H656.875L654.73 152H652.849ZM659.166 148.666V150.043H654.636V148.666H659.166ZM663.455 152H661.697V143.516H663.455V152ZM667 149.105L670.586 143.516H671.782V145.449H671.067L668.782 149.012V149.082H673.873V150.5H667V149.105ZM671.119 150.072L671.143 149.457V143.516H672.801V152H671.119V150.072ZM677.987 145.76C677.987 146.521 677.874 147.258 677.647 147.969C677.424 148.68 677.092 149.311 676.651 149.861C676.213 150.412 675.682 150.824 675.057 151.098L674.237 149.938C674.795 149.691 675.266 149.344 675.649 148.895C676.036 148.445 676.325 147.949 676.516 147.406C676.711 146.863 676.809 146.314 676.809 145.76V145.15H677.987V145.76ZM678.292 145.76C678.292 146.283 678.381 146.803 678.561 147.318C678.745 147.83 679.024 148.303 679.399 148.736C679.774 149.17 680.231 149.518 680.77 149.779L679.944 150.916C679.342 150.639 678.829 150.232 678.403 149.697C677.981 149.162 677.663 148.553 677.448 147.869C677.237 147.186 677.131 146.482 677.131 145.76V145.15H678.292V145.76ZM680.471 145.344H674.6V144.154H680.471V145.344ZM678.303 144.775H676.803V142.648H678.303V144.775ZM682.85 153.078H681.35V142.402H682.85V153.078ZM684.432 147.805H682.522V146.551H684.432V147.805ZM690.778 144.23C690.778 144.949 690.665 145.615 690.439 146.229C690.216 146.842 689.878 147.377 689.425 147.834C688.976 148.287 688.421 148.629 687.761 148.859L686.929 147.682C687.515 147.498 688.001 147.229 688.388 146.873C688.778 146.518 689.065 146.113 689.249 145.66C689.437 145.207 689.53 144.73 689.53 144.23V143.07H690.778V144.23ZM691.036 144.242C691.036 144.715 691.126 145.162 691.306 145.584C691.485 146.006 691.763 146.383 692.138 146.715C692.517 147.047 692.983 147.305 693.538 147.488L692.753 148.66C692.112 148.438 691.573 148.109 691.136 147.676C690.702 147.242 690.376 146.732 690.157 146.146C689.942 145.561 689.835 144.926 689.835 144.242V143.07H691.036V144.242ZM695.565 150.23H694.071V142.42H695.565V150.23ZM697.007 146.762H695.132V145.508H697.007V146.762ZM695.964 152.896H688.646V151.689H695.964V152.896ZM690.169 152.328H688.646V149.457H690.169V152.328ZM705.368 145.977H702.673V144.781H705.368V145.977ZM700.212 142.865C700.736 142.861 701.212 142.969 701.642 143.188C702.072 143.402 702.411 143.703 702.661 144.09C702.911 144.477 703.036 144.91 703.036 145.391C703.036 145.879 702.911 146.318 702.661 146.709C702.411 147.096 702.072 147.398 701.642 147.617C701.216 147.836 700.74 147.945 700.212 147.945C699.669 147.945 699.181 147.836 698.747 147.617C698.318 147.398 697.98 147.096 697.734 146.709C697.491 146.318 697.37 145.879 697.37 145.391C697.37 144.91 697.491 144.477 697.734 144.09C697.98 143.703 698.32 143.402 698.753 143.188C699.187 142.969 699.673 142.861 700.212 142.865ZM700.212 144.113C699.935 144.109 699.689 144.158 699.474 144.26C699.259 144.361 699.091 144.51 698.97 144.705C698.849 144.896 698.788 145.125 698.788 145.391C698.788 145.652 698.849 145.883 698.97 146.082C699.091 146.277 699.259 146.43 699.474 146.539C699.689 146.645 699.935 146.697 700.212 146.697C700.486 146.697 700.728 146.645 700.939 146.539C701.15 146.43 701.314 146.277 701.431 146.082C701.548 145.883 701.607 145.652 701.607 145.391C701.607 145.129 701.548 144.9 701.431 144.705C701.314 144.51 701.15 144.361 700.939 144.26C700.728 144.158 700.486 144.109 700.212 144.113ZM706.224 148.15H704.736V142.402H706.224V148.15ZM700.587 149.639H704.736V148.613H706.224V152.961H699.111V148.613H700.587V149.639ZM704.736 151.754V150.793H700.587V151.754H704.736ZM713.314 144.506H707.39V143.322H713.314V144.506ZM710.414 144.887C710.894 144.887 711.326 144.975 711.709 145.15C712.091 145.322 712.392 145.564 712.611 145.877C712.83 146.189 712.939 146.541 712.939 146.932C712.939 147.314 712.83 147.662 712.611 147.975C712.392 148.283 712.091 148.525 711.709 148.701C711.326 148.877 710.894 148.965 710.414 148.965C709.949 148.965 709.525 148.877 709.142 148.701C708.759 148.525 708.459 148.283 708.24 147.975C708.025 147.662 707.917 147.314 707.917 146.932C707.917 146.541 708.025 146.189 708.24 145.877C708.455 145.564 708.753 145.322 709.136 145.15C709.519 144.975 709.945 144.887 710.414 144.887ZM710.414 146.006C710.199 146.006 710.007 146.043 709.839 146.117C709.671 146.191 709.541 146.299 709.447 146.439C709.353 146.576 709.306 146.74 709.306 146.932C709.306 147.111 709.353 147.27 709.447 147.406C709.541 147.539 709.671 147.643 709.839 147.717C710.007 147.787 710.199 147.822 710.414 147.822C710.632 147.822 710.828 147.787 711 147.717C711.171 147.643 711.306 147.539 711.404 147.406C711.501 147.27 711.55 147.111 711.55 146.932C711.55 146.74 711.501 146.576 711.404 146.439C711.306 146.299 711.171 146.191 711 146.117C710.828 146.043 710.632 146.006 710.414 146.006ZM711.175 144.166H709.681V142.32H711.175V144.166ZM716.355 149.188H714.867V142.402H716.355V149.188ZM715.412 145.988H713.437V144.811H715.412V145.988ZM715.394 148.062H713.414V146.861H715.394V148.062ZM716.355 153.078H714.867V150.869H709.031V149.686H716.355V153.078ZM725.467 145.15H722.689V143.973H725.467V145.15ZM725.508 147.307H722.689V146.088H725.508V147.307ZM726.486 148.66H724.998V142.402H726.486V148.66ZM723.011 148.074H717.943V143.193H723.011V148.074ZM719.426 146.896H721.541V144.377H719.426V146.896ZM722.842 148.941C723.603 148.941 724.26 149.021 724.81 149.182C725.361 149.342 725.783 149.578 726.076 149.891C726.373 150.203 726.521 150.578 726.521 151.016C726.521 151.445 726.373 151.816 726.076 152.129C725.783 152.441 725.361 152.678 724.81 152.838C724.263 152.998 723.607 153.078 722.842 153.078C722.088 153.078 721.435 152.998 720.885 152.838C720.338 152.678 719.916 152.441 719.619 152.129C719.326 151.816 719.179 151.445 719.179 151.016C719.179 150.578 719.326 150.203 719.619 149.891C719.916 149.578 720.338 149.342 720.885 149.182C721.435 149.021 722.088 148.941 722.842 148.941ZM722.842 150.078C722.365 150.078 721.965 150.113 721.64 150.184C721.32 150.25 721.076 150.354 720.908 150.494C720.744 150.631 720.662 150.805 720.662 151.016C720.662 151.211 720.746 151.379 720.914 151.52C721.082 151.656 721.328 151.762 721.652 151.836C721.976 151.906 722.373 151.941 722.842 151.941C723.322 151.941 723.724 151.906 724.049 151.836C724.373 151.762 724.617 151.656 724.781 151.52C724.945 151.383 725.027 151.213 725.027 151.01C725.027 150.803 724.945 150.631 724.781 150.494C724.617 150.354 724.373 150.25 724.049 150.184C723.728 150.113 723.326 150.078 722.842 150.078ZM730.588 145.771C730.9 146.697 731.059 147.695 731.062 148.766C731.059 149.832 730.9 150.83 730.588 151.76C730.275 152.686 729.83 153.562 729.252 154.391H727.6C727.877 153.98 728.143 153.467 728.396 152.85C728.65 152.232 728.855 151.566 729.012 150.852C729.172 150.133 729.252 149.438 729.252 148.766C729.252 148.094 729.172 147.4 729.012 146.686C728.855 145.971 728.65 145.305 728.396 144.688C728.143 144.066 727.877 143.555 727.6 143.152H729.252C729.834 143.973 730.279 144.846 730.588 145.771Z" fill="#A5C0FF"/>
<path d="M874.327 171L877.745 161.102H880.384L883.808 171H881.6L879.105 163.337H879.023L876.521 171H874.327ZM881.696 167.11V168.717H876.412V167.11H881.696ZM886.7 171H884.649V161.102H886.7V171ZM897.447 172.237H895.697V159.803H897.447V172.237ZM899.203 166.023H896.995V164.588H899.203V166.023ZM894.124 161.088C894.124 162.387 893.94 163.585 893.571 164.684C893.202 165.777 892.6 166.785 891.766 167.705C890.932 168.621 889.838 169.414 888.485 170.084L887.5 168.751C888.617 168.186 889.535 167.548 890.255 166.837C890.98 166.126 891.52 165.324 891.875 164.431C892.235 163.537 892.415 162.528 892.415 161.402V161.088H894.124ZM893.29 162.517H888.198V161.088H893.29V162.517ZM913.163 172.258H911.522V159.803H913.163V172.258ZM911.919 166.017H909.807V164.622H911.919V166.017ZM910.319 171.656H908.72V160.028H910.319V171.656ZM903.634 167.985C904.541 167.985 905.322 167.965 905.978 167.924C906.635 167.883 907.305 167.801 907.988 167.678L908.111 169.093C907.414 169.225 906.728 169.316 906.054 169.366C905.379 169.412 904.573 169.437 903.634 169.441H902.759V167.985H903.634ZM907.407 162.66H904.509V168.689H902.759V161.259H907.407V162.66ZM921.36 165.962H919.343V164.533H921.36V165.962ZM917.784 163.597C917.784 164.504 917.686 165.363 917.49 166.174C917.294 166.985 916.989 167.716 916.574 168.368C916.16 169.02 915.633 169.533 914.995 169.906L913.997 168.601C914.567 168.263 915.036 167.83 915.405 167.302C915.775 166.773 916.043 166.197 916.212 165.572C916.385 164.943 916.472 164.285 916.472 163.597V163.248H917.784V163.597ZM918.106 163.597C918.106 164.262 918.19 164.893 918.359 165.49C918.527 166.087 918.794 166.634 919.158 167.131C919.528 167.623 919.995 168.022 920.56 168.327L919.603 169.605C918.96 169.273 918.427 168.801 918.003 168.19C917.584 167.575 917.279 166.88 917.087 166.105C916.896 165.326 916.8 164.49 916.8 163.597V163.248H918.106V163.597ZM920.074 163.323H914.462V161.922H920.074V163.323ZM918.099 163.05H916.472V160.24H918.099V163.05ZM924.983 172.258H923.342V159.803H924.983V172.258ZM922.44 171.69H920.806V160.021H922.44V171.69Z" fill="white"/>
<path d="M843.734 295.898H842.47V287.002H843.734V295.898ZM841.073 287.939C841.073 288.893 840.945 289.759 840.688 290.537C840.434 291.312 840.002 292.025 839.394 292.676C838.785 293.324 837.969 293.89 836.947 294.375L836.293 293.379C837.149 292.975 837.836 292.521 838.354 292.017C838.871 291.512 839.247 290.946 839.481 290.317C839.716 289.689 839.833 288.97 839.833 288.159V287.939H841.073ZM840.404 288.921H836.767V287.939H840.404V288.921ZM846.972 288.223H850.536V287.329H851.777V290.962H845.741V287.329H846.972V288.223ZM850.536 289.976V289.175H846.972V289.976H850.536ZM852.817 292.715H844.711V291.719H852.817V292.715ZM849.374 292.144H848.119V290.425H849.374V292.144ZM851.894 295.747H845.688V294.741H851.894V295.747ZM846.933 295.117H845.688V293.223H846.933V295.117ZM861.279 294.839H853.154V293.843H861.279V294.839ZM857.788 294.106H856.547V291.826H857.788V294.106ZM857.592 288.154C857.592 288.783 857.441 289.373 857.138 289.927C856.839 290.477 856.407 290.944 855.844 291.328C855.281 291.712 854.625 291.974 853.876 292.114L853.339 291.074C853.99 290.973 854.553 290.773 855.029 290.474C855.507 290.171 855.872 289.818 856.122 289.414C856.373 289.007 856.498 288.587 856.498 288.154V287.524H857.592V288.154ZM857.822 288.154C857.822 288.59 857.947 289.012 858.198 289.419C858.452 289.823 858.818 290.174 859.296 290.474C859.778 290.773 860.346 290.973 861 291.074L860.468 292.114C859.71 291.971 859.049 291.711 858.486 291.333C857.926 290.955 857.495 290.493 857.192 289.946C856.892 289.396 856.743 288.799 856.743 288.154V287.524H857.822V288.154ZM869.716 292.212H861.596V291.211H869.716V292.212ZM868.735 295.913H867.509V293.965H862.49V292.969H868.735V295.913ZM868.828 290.498H862.578V289.507H868.828V290.498ZM868.74 288.291H863.818V290.024H862.578V287.314H868.74V288.291ZM878.144 292.397H870.039V291.392H878.144V292.397ZM874.692 288.345H873.457V287.036H874.692V288.345ZM874.472 288.564C874.472 289.017 874.328 289.419 874.038 289.771C873.751 290.119 873.33 290.402 872.773 290.62C872.217 290.835 871.543 290.972 870.752 291.03L870.371 290.093C871.051 290.05 871.618 289.953 872.07 289.8C872.523 289.647 872.853 289.465 873.061 289.253C873.273 289.041 873.379 288.812 873.379 288.564V288.389H874.472V288.564ZM874.775 288.564C874.775 288.805 874.879 289.033 875.088 289.248C875.299 289.463 875.63 289.647 876.079 289.8C876.531 289.953 877.098 290.05 877.778 290.093L877.402 291.03C876.614 290.972 875.941 290.835 875.381 290.62C874.824 290.402 874.401 290.119 874.111 289.771C873.825 289.419 873.681 289.017 873.681 288.564V288.389H874.775V288.564ZM877.358 288.789H870.815V287.803H877.358V288.789ZM874.077 292.876C874.731 292.876 875.288 292.935 875.747 293.052C876.206 293.169 876.557 293.341 876.802 293.569C877.049 293.794 877.173 294.066 877.173 294.385C877.173 294.707 877.051 294.982 876.806 295.21C876.562 295.438 876.209 295.609 875.747 295.723C875.285 295.84 874.728 295.898 874.077 295.898C873.426 295.898 872.868 295.84 872.402 295.723C871.937 295.609 871.58 295.438 871.333 295.21C871.085 294.982 870.962 294.707 870.962 294.385C870.962 294.066 871.085 293.794 871.333 293.569C871.58 293.341 871.937 293.169 872.402 293.052C872.868 292.935 873.426 292.876 874.077 292.876ZM874.077 293.799C873.66 293.799 873.315 293.82 873.042 293.862C872.768 293.901 872.565 293.965 872.431 294.053C872.298 294.141 872.231 294.251 872.231 294.385C872.231 294.518 872.298 294.629 872.431 294.717C872.565 294.805 872.767 294.87 873.037 294.912C873.31 294.954 873.657 294.976 874.077 294.976C874.487 294.976 874.827 294.954 875.097 294.912C875.371 294.87 875.576 294.805 875.713 294.717C875.849 294.629 875.918 294.518 875.918 294.385C875.918 294.251 875.849 294.141 875.713 294.053C875.576 293.965 875.373 293.901 875.102 293.862C874.832 293.82 874.49 293.799 874.077 293.799ZM881.104 292.305C881.107 291.413 881.237 290.581 881.494 289.81C881.755 289.038 882.127 288.311 882.612 287.627H883.989C883.758 287.962 883.537 288.389 883.325 288.906C883.114 289.421 882.941 289.976 882.808 290.571C882.678 291.167 882.612 291.745 882.612 292.305C882.612 292.865 882.678 293.444 882.808 294.043C882.941 294.639 883.114 295.194 883.325 295.708C883.537 296.222 883.758 296.65 883.989 296.992H882.612C882.131 296.302 881.76 295.571 881.499 294.8C881.239 294.025 881.107 293.193 881.104 292.305ZM884.624 287.93H887.437C887.941 287.93 888.37 288.006 888.721 288.159C889.073 288.309 889.336 288.521 889.512 288.794C889.691 289.064 889.781 289.382 889.781 289.746C889.781 290.013 889.725 290.251 889.615 290.459C889.507 290.667 889.357 290.84 889.165 290.977C888.977 291.11 888.757 291.204 888.506 291.26V291.328C888.776 291.341 889.03 291.419 889.268 291.562C889.506 291.706 889.696 291.906 889.839 292.163C889.982 292.417 890.054 292.713 890.054 293.052C890.054 293.429 889.961 293.765 889.776 294.058C889.59 294.351 889.314 294.582 888.946 294.751C888.581 294.917 888.14 295 887.622 295H884.624V287.93ZM887.325 293.794C887.601 293.794 887.829 293.758 888.008 293.687C888.19 293.612 888.324 293.509 888.409 293.379C888.493 293.245 888.536 293.088 888.536 292.905C888.536 292.71 888.488 292.534 888.394 292.378C888.3 292.222 888.163 292.103 887.984 292.021C887.808 291.937 887.601 291.895 887.364 291.895H886.089V293.794H887.325ZM887.217 290.894C887.422 290.894 887.606 290.856 887.769 290.781C887.935 290.706 888.064 290.601 888.155 290.464C888.249 290.327 888.296 290.166 888.296 289.98C888.296 289.805 888.256 289.653 888.174 289.526C888.093 289.396 887.972 289.297 887.813 289.229C887.657 289.157 887.468 289.121 887.246 289.121H886.089V290.894H887.217ZM893.868 292.71C893.738 292.713 893.508 292.726 893.179 292.749L892.711 292.788C892.453 292.808 892.252 292.878 892.105 292.998C891.959 293.115 891.885 293.275 891.885 293.477C891.885 293.607 891.918 293.717 891.983 293.809C892.051 293.9 892.146 293.97 892.266 294.019C892.39 294.067 892.528 294.092 892.681 294.092C892.899 294.092 893.093 294.049 893.262 293.965C893.432 293.877 893.563 293.758 893.658 293.608C893.752 293.455 893.799 293.288 893.799 293.105L893.79 291.392C893.79 291.242 893.757 291.115 893.692 291.011C893.63 290.903 893.534 290.824 893.404 290.771C893.277 290.716 893.126 290.688 892.95 290.688C892.706 290.688 892.507 290.741 892.354 290.845C892.201 290.946 892.105 291.089 892.066 291.274H890.689C890.722 290.962 890.831 290.682 891.016 290.435C891.205 290.184 891.465 289.987 891.797 289.844C892.133 289.701 892.528 289.629 892.984 289.629C893.394 289.629 893.768 289.692 894.107 289.819C894.446 289.946 894.717 290.145 894.922 290.415C895.131 290.682 895.235 291.019 895.235 291.426V295H893.863V294.268H893.824C893.736 294.434 893.62 294.578 893.477 294.702C893.334 294.826 893.161 294.924 892.96 294.995C892.761 295.063 892.53 295.098 892.266 295.098C891.924 295.098 891.622 295.037 891.358 294.917C891.094 294.797 890.886 294.618 890.733 294.38C890.58 294.142 890.504 293.856 890.504 293.521C890.504 292.967 890.686 292.565 891.05 292.314C891.418 292.064 891.893 291.921 892.476 291.885C892.574 291.875 892.875 291.859 893.379 291.836L893.858 291.816L893.868 292.71ZM899.161 291.274C899.128 291.079 899.036 290.928 898.883 290.82C898.73 290.713 898.533 290.659 898.292 290.659C898.136 290.659 897.996 290.682 897.872 290.728C897.748 290.77 897.649 290.833 897.574 290.918C897.502 290.999 897.467 291.092 897.467 291.196C897.463 291.32 897.515 291.427 897.623 291.519C897.734 291.61 897.909 291.68 898.15 291.729L899.107 291.924C899.622 292.028 900.004 292.199 900.255 292.437C900.509 292.671 900.636 292.979 900.636 293.359C900.636 293.704 900.536 294.009 900.338 294.272C900.142 294.533 899.867 294.736 899.513 294.883C899.161 295.029 898.751 295.103 898.282 295.103C897.81 295.103 897.401 295.036 897.056 294.902C896.715 294.766 896.444 294.574 896.246 294.326C896.047 294.076 895.929 293.778 895.889 293.433H897.34C897.382 293.634 897.483 293.789 897.642 293.896C897.805 294.001 898.02 294.053 898.287 294.053C898.459 294.053 898.611 294.032 898.741 293.989C898.874 293.947 898.977 293.885 899.049 293.804C899.124 293.719 899.161 293.621 899.161 293.511C899.161 293.368 899.102 293.252 898.985 293.164C898.871 293.076 898.691 293.008 898.443 292.959L897.564 292.783C897.056 292.682 896.672 292.505 896.412 292.251C896.155 291.997 896.028 291.675 896.031 291.284C896.031 290.946 896.122 290.653 896.304 290.405C896.487 290.155 896.746 289.963 897.081 289.829C897.419 289.696 897.817 289.629 898.272 289.629C898.715 289.629 899.101 289.696 899.429 289.829C899.758 289.963 900.015 290.153 900.201 290.4C900.387 290.648 900.491 290.939 900.513 291.274H899.161ZM901.324 289.697H902.77V295H901.324V289.697ZM902.047 288.999C901.904 288.999 901.772 288.966 901.651 288.901C901.531 288.836 901.435 288.747 901.363 288.633C901.292 288.519 901.256 288.397 901.256 288.267C901.256 288.133 901.292 288.011 901.363 287.9C901.435 287.786 901.531 287.697 901.651 287.632C901.772 287.567 901.904 287.534 902.047 287.534C902.19 287.534 902.322 287.567 902.442 287.632C902.563 287.697 902.657 287.786 902.726 287.9C902.797 288.011 902.833 288.133 902.833 288.267C902.833 288.397 902.797 288.519 902.726 288.633C902.657 288.747 902.563 288.836 902.442 288.901C902.322 288.966 902.19 288.999 902.047 288.999ZM906.08 295.103C905.546 295.103 905.083 294.987 904.689 294.756C904.295 294.525 903.994 294.202 903.785 293.789C903.577 293.376 903.473 292.902 903.473 292.368C903.473 291.828 903.579 291.351 903.79 290.938C904.002 290.524 904.303 290.203 904.694 289.976C905.084 289.744 905.543 289.629 906.071 289.629C906.526 289.629 906.928 289.712 907.277 289.878C907.628 290.041 907.903 290.275 908.102 290.581C908.304 290.887 908.414 291.24 908.434 291.641H907.067C907.041 291.465 906.985 291.31 906.901 291.177C906.816 291.04 906.705 290.936 906.569 290.864C906.432 290.789 906.274 290.752 906.095 290.752C905.864 290.752 905.662 290.815 905.489 290.942C905.317 291.066 905.182 291.247 905.084 291.484C904.987 291.722 904.938 292.008 904.938 292.344C904.938 292.682 904.985 292.972 905.079 293.213C905.177 293.451 905.312 293.633 905.485 293.76C905.657 293.887 905.861 293.95 906.095 293.95C906.267 293.95 906.422 293.918 906.559 293.853C906.696 293.784 906.808 293.683 906.896 293.55C906.984 293.416 907.041 293.257 907.067 293.071H908.434C908.411 293.472 908.3 293.825 908.102 294.131C907.906 294.437 907.635 294.676 907.286 294.849C906.941 295.018 906.539 295.103 906.08 295.103ZM912.741 295H911.276V287.93H912.741V295ZM915.153 295H913.708V289.697H915.085V290.625H915.143C915.267 290.312 915.466 290.068 915.739 289.893C916.016 289.717 916.349 289.629 916.74 289.629C917.108 289.629 917.429 289.709 917.702 289.868C917.975 290.028 918.187 290.257 918.337 290.557C918.49 290.856 918.566 291.211 918.566 291.621V295H917.121V291.87C917.121 291.652 917.083 291.466 917.009 291.313C916.937 291.157 916.83 291.038 916.686 290.957C916.543 290.872 916.371 290.83 916.169 290.83C915.967 290.83 915.79 290.874 915.637 290.962C915.484 291.047 915.365 291.172 915.28 291.338C915.195 291.501 915.153 291.698 915.153 291.929V295ZM921.872 295.103C921.338 295.103 920.874 294.987 920.48 294.756C920.087 294.525 919.785 294.202 919.577 293.789C919.369 293.376 919.265 292.902 919.265 292.368C919.265 291.828 919.37 291.351 919.582 290.938C919.794 290.524 920.095 290.203 920.485 289.976C920.876 289.744 921.335 289.629 921.862 289.629C922.318 289.629 922.72 289.712 923.068 289.878C923.42 290.041 923.695 290.275 923.894 290.581C924.095 290.887 924.206 291.24 924.226 291.641H922.858C922.832 291.465 922.777 291.31 922.692 291.177C922.608 291.04 922.497 290.936 922.36 290.864C922.224 290.789 922.066 290.752 921.887 290.752C921.656 290.752 921.454 290.815 921.281 290.942C921.109 291.066 920.974 291.247 920.876 291.484C920.778 291.722 920.729 292.008 920.729 292.344C920.729 292.682 920.777 292.972 920.871 293.213C920.969 293.451 921.104 293.633 921.276 293.76C921.449 293.887 921.652 293.95 921.887 293.95C922.059 293.95 922.214 293.918 922.351 293.853C922.487 293.784 922.6 293.683 922.688 293.55C922.775 293.416 922.832 293.257 922.858 293.071H924.226C924.203 293.472 924.092 293.825 923.894 294.131C923.698 294.437 923.426 294.676 923.078 294.849C922.733 295.018 922.331 295.103 921.872 295.103ZM927.307 295.103C926.779 295.103 926.319 294.989 925.925 294.761C925.531 294.533 925.228 294.212 925.017 293.799C924.805 293.385 924.699 292.909 924.699 292.368C924.699 291.821 924.805 291.343 925.017 290.933C925.228 290.519 925.531 290.199 925.925 289.971C926.319 289.743 926.779 289.629 927.307 289.629C927.831 289.629 928.29 289.743 928.684 289.971C929.081 290.199 929.384 290.519 929.592 290.933C929.8 291.343 929.904 291.821 929.904 292.368C929.904 292.909 929.8 293.385 929.592 293.799C929.384 294.212 929.081 294.533 928.684 294.761C928.29 294.989 927.831 295.103 927.307 295.103ZM927.317 293.984C927.557 293.984 927.761 293.914 927.927 293.774C928.096 293.634 928.223 293.442 928.308 293.198C928.392 292.951 928.435 292.671 928.435 292.358C928.435 292.043 928.392 291.763 928.308 291.519C928.223 291.274 928.096 291.082 927.927 290.942C927.761 290.802 927.557 290.732 927.317 290.732C927.069 290.732 926.859 290.802 926.687 290.942C926.514 291.082 926.384 291.274 926.296 291.519C926.208 291.759 926.164 292.039 926.164 292.358C926.164 292.674 926.208 292.954 926.296 293.198C926.384 293.442 926.514 293.634 926.687 293.774C926.859 293.914 927.069 293.984 927.317 293.984ZM930.618 289.697H931.995V290.625H932.053C932.17 290.309 932.357 290.065 932.615 289.893C932.872 289.717 933.178 289.629 933.533 289.629C933.77 289.629 933.987 289.67 934.182 289.751C934.381 289.829 934.547 289.943 934.68 290.093C934.814 290.243 934.911 290.42 934.973 290.625H935.022C935.1 290.423 935.216 290.247 935.369 290.098C935.522 289.948 935.705 289.832 935.92 289.751C936.135 289.67 936.37 289.629 936.623 289.629C936.955 289.629 937.247 289.701 937.497 289.844C937.751 289.984 937.948 290.19 938.088 290.464C938.228 290.734 938.298 291.06 938.298 291.44V295H936.848V291.714C936.848 291.424 936.772 291.204 936.619 291.055C936.466 290.902 936.265 290.825 936.018 290.825C935.839 290.825 935.684 290.864 935.554 290.942C935.427 291.017 935.328 291.125 935.256 291.265C935.188 291.401 935.154 291.564 935.154 291.753V295H933.752V291.675C933.752 291.506 933.718 291.356 933.65 291.226C933.585 291.095 933.49 290.996 933.367 290.928C933.243 290.859 933.1 290.825 932.937 290.825C932.774 290.825 932.626 290.866 932.493 290.947C932.362 291.025 932.258 291.139 932.18 291.289C932.102 291.439 932.063 291.613 932.063 291.812V295H930.618V289.697ZM941.614 295.103C941.08 295.103 940.615 294.992 940.217 294.771C939.824 294.549 939.519 294.233 939.304 293.823C939.093 293.413 938.987 292.931 938.987 292.378C938.987 291.831 939.093 291.351 939.304 290.938C939.519 290.521 939.82 290.199 940.208 289.971C940.595 289.743 941.044 289.629 941.555 289.629C942.034 289.629 942.46 289.73 942.835 289.932C943.209 290.13 943.504 290.431 943.718 290.835C943.933 291.239 944.041 291.732 944.041 292.314V292.72H939.578V291.816H942.678C942.678 291.602 942.631 291.411 942.537 291.245C942.442 291.076 942.312 290.944 942.146 290.85C941.98 290.755 941.791 290.708 941.58 290.708C941.355 290.708 941.155 290.76 940.979 290.864C940.803 290.965 940.665 291.105 940.564 291.284C940.466 291.463 940.416 291.659 940.413 291.87V292.72C940.413 292.983 940.463 293.215 940.564 293.413C940.665 293.612 940.807 293.763 940.989 293.867C941.174 293.971 941.389 294.023 941.633 294.023C941.796 294.023 941.944 294.001 942.078 293.955C942.211 293.906 942.324 293.844 942.415 293.77C942.509 293.691 942.581 293.6 942.629 293.496H944.006C943.938 293.818 943.796 294.102 943.582 294.346C943.37 294.587 943.095 294.774 942.756 294.907C942.421 295.037 942.04 295.103 941.614 295.103ZM946.912 289.81C947.172 290.581 947.304 291.413 947.307 292.305C947.304 293.193 947.172 294.025 946.912 294.8C946.651 295.571 946.28 296.302 945.799 296.992H944.422C944.653 296.65 944.874 296.222 945.086 295.708C945.297 295.194 945.468 294.639 945.598 294.043C945.732 293.444 945.799 292.865 945.799 292.305C945.799 291.745 945.732 291.167 945.598 290.571C945.468 289.976 945.297 289.421 945.086 288.906C944.874 288.389 944.653 287.962 944.422 287.627H945.799C946.284 288.311 946.655 289.038 946.912 289.81Z" fill="white"/>
<path d="M812 344L812 24" stroke="white" stroke-opacity="0.6" stroke-dasharray="4 4"/>
<path d="M548 344L548 24" stroke="white" stroke-opacity="0.6" stroke-dasharray="4 4"/>
<path d="M534.719 367.729L537.772 364.922C538.073 364.633 538.307 364.395 538.475 364.207C538.643 364.016 538.77 363.824 538.856 363.633C538.946 363.438 538.991 363.23 538.991 363.012C538.991 362.77 538.932 362.557 538.815 362.373C538.698 362.186 538.538 362.043 538.335 361.945C538.131 361.848 537.901 361.799 537.643 361.799C537.381 361.799 537.149 361.852 536.946 361.957C536.747 362.062 536.592 362.217 536.483 362.42C536.378 362.619 536.325 362.852 536.325 363.117H534.649C534.649 362.574 534.774 362.098 535.024 361.688C535.278 361.273 535.631 360.955 536.085 360.732C536.542 360.51 537.067 360.398 537.661 360.398C538.258 360.398 538.786 360.504 539.243 360.715C539.7 360.926 540.053 361.221 540.303 361.6C540.557 361.979 540.684 362.412 540.684 362.9C540.684 363.232 540.62 363.553 540.491 363.861C540.366 364.17 540.143 364.512 539.823 364.887C539.506 365.262 539.055 365.715 538.469 366.246L537.174 367.494V367.553H540.807V369H534.725L534.719 367.729ZM545.108 369.117C544.401 369.117 543.792 368.947 543.28 368.607C542.772 368.268 542.382 367.771 542.108 367.119C541.839 366.463 541.704 365.676 541.704 364.758C541.704 363.84 541.839 363.055 542.108 362.402C542.382 361.75 542.774 361.254 543.286 360.914C543.798 360.57 544.405 360.398 545.108 360.398C545.811 360.398 546.419 360.57 546.931 360.914C547.442 361.254 547.835 361.752 548.108 362.408C548.382 363.061 548.518 363.844 548.518 364.758C548.518 365.68 548.382 366.467 548.108 367.119C547.839 367.771 547.448 368.268 546.936 368.607C546.425 368.947 545.815 369.117 545.108 369.117ZM545.108 367.664C545.436 367.664 545.722 367.557 545.964 367.342C546.21 367.127 546.397 366.803 546.526 366.369C546.655 365.932 546.718 365.395 546.714 364.758C546.714 364.125 546.649 363.592 546.52 363.158C546.391 362.721 546.206 362.393 545.964 362.174C545.722 361.955 545.436 361.846 545.108 361.846C544.78 361.846 544.495 361.955 544.253 362.174C544.015 362.393 543.829 362.721 543.696 363.158C543.563 363.592 543.497 364.125 543.497 364.758C543.497 365.395 543.561 365.932 543.69 366.369C543.823 366.803 544.011 367.127 544.253 367.342C544.495 367.557 544.78 367.664 545.108 367.664ZM553.148 369H551.378V362.191H551.331L549.392 363.422V361.852L551.489 360.516H553.148V369ZM558.169 369.117C557.54 369.113 556.97 368.975 556.458 368.701C555.947 368.428 555.533 367.98 555.216 367.359C554.9 366.738 554.742 365.936 554.742 364.951C554.742 364.01 554.884 363.197 555.169 362.514C555.458 361.826 555.865 361.303 556.388 360.943C556.915 360.58 557.531 360.398 558.234 360.398C558.792 360.398 559.29 360.506 559.728 360.721C560.169 360.936 560.525 361.23 560.794 361.605C561.064 361.98 561.228 362.402 561.286 362.871H559.546C559.499 362.672 559.415 362.5 559.294 362.355C559.177 362.207 559.029 362.096 558.849 362.021C558.669 361.947 558.464 361.91 558.234 361.91C557.855 361.91 557.535 362.02 557.273 362.238C557.015 362.453 556.818 362.762 556.681 363.164C556.544 363.566 556.474 364.049 556.47 364.611H556.54C556.673 364.361 556.849 364.148 557.068 363.973C557.29 363.793 557.542 363.656 557.824 363.562C558.109 363.465 558.406 363.416 558.714 363.416C559.218 363.416 559.673 363.533 560.079 363.768C560.486 364.002 560.802 364.328 561.029 364.746C561.259 365.16 561.374 365.631 561.374 366.158C561.374 366.729 561.24 367.238 560.97 367.688C560.704 368.137 560.327 368.488 559.839 368.742C559.355 368.992 558.798 369.117 558.169 369.117ZM558.158 367.729C558.443 367.729 558.699 367.662 558.925 367.529C559.156 367.393 559.335 367.209 559.464 366.979C559.597 366.744 559.663 366.488 559.663 366.211C559.663 365.926 559.599 365.668 559.47 365.438C559.341 365.207 559.163 365.027 558.937 364.898C558.71 364.77 558.454 364.705 558.169 364.705C557.888 364.705 557.632 364.771 557.402 364.904C557.171 365.037 556.99 365.219 556.857 365.449C556.724 365.68 556.654 365.936 556.646 366.217C556.65 366.486 556.716 366.736 556.845 366.967C556.978 367.197 557.158 367.383 557.384 367.523C557.615 367.66 557.872 367.729 558.158 367.729Z" fill="#D0D0D0"/>
<path d="M794.34 370.093L798.919 365.883C799.37 365.449 799.722 365.092 799.974 364.811C800.226 364.523 800.416 364.236 800.545 363.949C800.68 363.656 800.747 363.346 800.747 363.018C800.747 362.654 800.659 362.335 800.483 362.06C800.308 361.778 800.067 361.564 799.763 361.418C799.458 361.271 799.112 361.198 798.726 361.198C798.333 361.198 797.984 361.277 797.68 361.436C797.381 361.594 797.149 361.825 796.985 362.13C796.827 362.429 796.748 362.777 796.748 363.176H794.234C794.234 362.361 794.422 361.646 794.797 361.031C795.178 360.41 795.708 359.933 796.388 359.599C797.073 359.265 797.861 359.098 798.752 359.098C799.648 359.098 800.439 359.256 801.125 359.572C801.811 359.889 802.341 360.331 802.716 360.899C803.097 361.468 803.287 362.118 803.287 362.851C803.287 363.349 803.19 363.829 802.997 364.292C802.81 364.755 802.476 365.268 801.995 365.83C801.52 366.393 800.844 367.072 799.965 367.869L798.022 369.741V369.829H803.472V372H794.349L794.34 370.093ZM809.923 372.176C808.863 372.176 807.949 371.921 807.181 371.411C806.419 370.901 805.833 370.157 805.423 369.179C805.019 368.194 804.817 367.014 804.817 365.637C804.817 364.26 805.019 363.082 805.423 362.104C805.833 361.125 806.422 360.381 807.19 359.871C807.957 359.355 808.868 359.098 809.923 359.098C810.978 359.098 811.889 359.355 812.657 359.871C813.424 360.381 814.013 361.128 814.423 362.112C814.833 363.091 815.038 364.266 815.038 365.637C815.038 367.02 814.833 368.2 814.423 369.179C814.019 370.157 813.433 370.901 812.665 371.411C811.898 371.921 810.984 372.176 809.923 372.176ZM809.923 369.996C810.415 369.996 810.843 369.835 811.206 369.513C811.576 369.19 811.857 368.704 812.05 368.054C812.243 367.397 812.337 366.592 812.331 365.637C812.331 364.688 812.235 363.888 812.041 363.237C811.848 362.581 811.57 362.089 811.206 361.761C810.843 361.433 810.415 361.269 809.923 361.269C809.431 361.269 809.003 361.433 808.64 361.761C808.283 362.089 808.004 362.581 807.805 363.237C807.606 363.888 807.506 364.688 807.506 365.637C807.506 366.592 807.603 367.397 807.796 368.054C807.995 368.704 808.277 369.19 808.64 369.513C809.003 369.835 809.431 369.996 809.923 369.996ZM821.226 372.176C820.3 372.176 819.471 372.018 818.739 371.701C818.007 371.385 817.432 370.939 817.016 370.365C816.606 369.791 816.392 369.141 816.375 368.414H819.038C819.055 368.713 819.161 368.982 819.354 369.223C819.548 369.463 819.808 369.65 820.136 369.785C820.465 369.92 820.828 369.987 821.226 369.987C821.642 369.987 822.017 369.914 822.351 369.768C822.691 369.615 822.952 369.41 823.133 369.152C823.315 368.889 823.403 368.59 823.397 368.256C823.403 367.91 823.309 367.603 823.116 367.333C822.923 367.063 822.641 366.855 822.272 366.709C821.909 366.557 821.481 366.48 820.989 366.48H819.802V364.529H820.989C821.405 364.529 821.777 364.459 822.105 364.318C822.433 364.172 822.685 363.97 822.861 363.712C823.037 363.454 823.122 363.161 823.116 362.833C823.122 362.511 823.049 362.227 822.896 361.98C822.744 361.729 822.524 361.535 822.237 361.4C821.95 361.266 821.622 361.198 821.253 361.198C820.878 361.198 820.535 361.266 820.224 361.4C819.914 361.529 819.662 361.717 819.468 361.963C819.281 362.203 819.178 362.484 819.161 362.807H816.63C816.653 362.086 816.867 361.444 817.271 360.882C817.675 360.319 818.223 359.883 818.915 359.572C819.612 359.256 820.391 359.098 821.253 359.098C822.126 359.098 822.896 359.253 823.564 359.563C824.232 359.874 824.751 360.302 825.12 360.847C825.489 361.392 825.668 362.001 825.656 362.675C825.668 363.138 825.571 363.56 825.366 363.94C825.167 364.321 824.883 364.635 824.513 364.881C824.15 365.121 823.728 365.285 823.248 365.373V365.47C823.869 365.546 824.396 365.719 824.83 365.988C825.269 366.252 825.6 366.592 825.823 367.008C826.046 367.424 826.151 367.898 826.139 368.432C826.151 369.141 825.946 369.782 825.524 370.356C825.102 370.925 824.516 371.37 823.766 371.692C823.016 372.015 822.17 372.176 821.226 372.176ZM827.643 370.093L832.222 365.883C832.673 365.449 833.024 365.092 833.276 364.811C833.528 364.523 833.719 364.236 833.848 363.949C833.982 363.656 834.05 363.346 834.05 363.018C834.05 362.654 833.962 362.335 833.786 362.06C833.61 361.778 833.37 361.564 833.065 361.418C832.761 361.271 832.415 361.198 832.028 361.198C831.636 361.198 831.287 361.277 830.982 361.436C830.684 361.594 830.452 361.825 830.288 362.13C830.13 362.429 830.051 362.777 830.051 363.176H827.537C827.537 362.361 827.725 361.646 828.1 361.031C828.481 360.41 829.011 359.933 829.69 359.599C830.376 359.265 831.164 359.098 832.055 359.098C832.951 359.098 833.742 359.256 834.428 359.572C835.113 359.889 835.644 360.331 836.019 360.899C836.399 361.468 836.59 362.118 836.59 362.851C836.59 363.349 836.493 363.829 836.3 364.292C836.112 364.755 835.778 365.268 835.298 365.83C834.823 366.393 834.147 367.072 833.268 367.869L831.325 369.741V369.829H836.774V372H827.651L827.643 370.093Z" fill="white"/>
<path d="M90.8144 337.017C90.2717 337.12 89.9149 337.643 90.0174 338.186C90.1199 338.728 90.6429 339.085 91.1856 338.983L91 338L90.8144 337.017ZM827 199L816.102 195.183L818.245 206.529L827 199ZM91 338L91.1856 338.983L818.342 201.653L818.156 200.67L817.971 199.688L90.8144 337.017L91 338Z" fill="#FF7171"/>
<path d="M543.167 251.5C543.167 254.446 545.554 256.833 548.5 256.833C551.446 256.833 553.833 254.446 553.833 251.5C553.833 248.554 551.446 246.167 548.5 246.167C545.554 246.167 543.167 248.554 543.167 251.5ZM812 88L802.28 94.2336L812.538 99.5344L812 88ZM550.59 252.177C551.135 252.088 551.504 251.574 551.415 251.029C551.326 250.484 550.812 250.114 550.267 250.203L550.428 251.19L550.59 252.177ZM554.262 249.527C553.718 249.622 553.354 250.14 553.449 250.684C553.544 251.228 554.062 251.592 554.606 251.497L554.434 250.512L554.262 249.527ZM558.515 250.793C559.058 250.692 559.417 250.17 559.316 249.627C559.216 249.084 558.694 248.726 558.151 248.826L558.333 249.81L558.515 250.793ZM562.105 248.073C561.563 248.179 561.21 248.704 561.316 249.246C561.422 249.788 561.947 250.142 562.489 250.036L562.297 249.055L562.105 248.073ZM566.427 249.247C566.968 249.136 567.317 248.608 567.206 248.067C567.095 247.526 566.566 247.177 566.025 247.288L566.226 248.268L566.427 249.247ZM569.94 246.466C569.4 246.582 569.056 247.114 569.172 247.654C569.288 248.194 569.82 248.538 570.36 248.422L570.15 247.444L569.94 246.466ZM574.305 247.557C574.844 247.436 575.183 246.902 575.063 246.363C574.942 245.824 574.407 245.485 573.868 245.605L574.087 246.581L574.305 247.557ZM577.755 244.718C577.217 244.843 576.883 245.381 577.008 245.919C577.133 246.457 577.671 246.791 578.209 246.666L577.982 245.692L577.755 244.718ZM582.145 245.732C582.681 245.602 583.011 245.062 582.882 244.525C582.752 243.988 582.212 243.658 581.675 243.788L581.91 244.76L582.145 245.732ZM585.543 242.836C585.008 242.97 584.682 243.513 584.816 244.049C584.951 244.585 585.494 244.91 586.029 244.776L585.786 243.806L585.543 242.836ZM589.945 243.778C590.48 243.639 590.801 243.093 590.662 242.559C590.524 242.024 589.978 241.703 589.444 241.842L589.694 242.81L589.945 243.778ZM593.302 240.825C592.768 240.968 592.452 241.516 592.595 242.049C592.738 242.583 593.286 242.9 593.819 242.757L593.561 241.791L593.302 240.825ZM597.709 241.697C598.242 241.55 598.554 240.999 598.407 240.467C598.259 239.934 597.708 239.622 597.176 239.77L597.443 240.733L597.709 241.697ZM601.029 238.687C600.498 238.838 600.19 239.392 600.342 239.923C600.493 240.454 601.047 240.762 601.578 240.61L601.303 239.648L601.029 238.687ZM605.438 239.491C605.968 239.335 606.271 238.78 606.116 238.25C605.96 237.72 605.404 237.417 604.874 237.573L605.156 238.532L605.438 239.491ZM608.724 236.423C608.195 236.583 607.896 237.142 608.057 237.67C608.217 238.199 608.775 238.498 609.304 238.337L609.014 237.38L608.724 236.423ZM613.133 237.16C613.66 236.996 613.954 236.435 613.79 235.908C613.626 235.381 613.065 235.087 612.538 235.251L612.835 236.206L613.133 237.16ZM616.385 234.034C615.859 234.203 615.569 234.766 615.738 235.292C615.907 235.818 616.47 236.108 616.996 235.939L616.69 234.987L616.385 234.034ZM620.793 234.704C621.318 234.531 621.603 233.966 621.43 233.441C621.257 232.917 620.692 232.632 620.167 232.805L620.48 233.754L620.793 234.704ZM623.983 231.529C623.46 231.706 623.18 232.274 623.357 232.797C623.534 233.32 624.102 233.601 624.625 233.423L624.304 232.476L623.983 231.529ZM628.418 232.121C628.939 231.94 629.215 231.37 629.033 230.848C628.852 230.326 628.282 230.051 627.76 230.232L628.089 231.177L628.418 232.121ZM631.538 228.9C631.018 229.086 630.747 229.658 630.933 230.178C631.119 230.698 631.691 230.969 632.211 230.784L631.875 229.842L631.538 228.9ZM636.004 229.41C636.523 229.22 636.789 228.646 636.599 228.127C636.408 227.609 635.834 227.343 635.315 227.533L635.66 228.472L636.004 229.41ZM639.056 226.143C638.539 226.338 638.277 226.915 638.472 227.431C638.666 227.948 639.243 228.21 639.76 228.015L639.408 227.079L639.056 226.143ZM643.537 226.576C644.052 226.377 644.308 225.798 644.109 225.283C643.91 224.767 643.332 224.511 642.816 224.71L643.176 225.643L643.537 226.576ZM646.532 223.257C646.019 223.46 645.767 224.041 645.971 224.555C646.174 225.068 646.755 225.32 647.269 225.117L646.9 224.187L646.532 223.257ZM651.004 223.619C651.516 223.411 651.762 222.828 651.554 222.316C651.347 221.804 650.763 221.558 650.252 221.766L650.628 222.692L651.004 223.619ZM653.964 220.239C653.454 220.452 653.213 221.037 653.425 221.547C653.637 222.057 654.223 222.298 654.733 222.086L654.348 221.163L653.964 220.239ZM658.428 220.528C658.936 220.312 659.172 219.724 658.955 219.216C658.738 218.708 658.151 218.472 657.643 218.689L658.035 219.609L658.428 220.528ZM661.331 217.095C660.825 217.316 660.595 217.906 660.816 218.412C661.037 218.918 661.627 219.149 662.133 218.928L661.732 218.011L661.331 217.095ZM665.803 217.302C666.307 217.076 666.533 216.484 666.307 215.981C666.081 215.477 665.489 215.251 664.985 215.477L665.394 216.39L665.803 217.302ZM668.63 213.823C668.129 214.053 667.909 214.647 668.139 215.149C668.37 215.651 668.963 215.871 669.465 215.64L669.048 214.731L668.63 213.823ZM673.125 213.938C673.624 213.703 673.839 213.107 673.604 212.607C673.368 212.108 672.772 211.893 672.273 212.129L672.699 213.033L673.125 213.938ZM675.875 210.412C675.378 210.652 675.169 211.249 675.409 211.747C675.649 212.244 676.247 212.453 676.744 212.213L676.31 211.312L675.875 210.412ZM680.365 210.445C680.86 210.2 681.063 209.6 680.818 209.105C680.573 208.61 679.974 208.407 679.479 208.652L679.922 209.548L680.365 210.445ZM683.06 206.86C682.567 207.109 682.37 207.711 682.62 208.204C682.869 208.696 683.471 208.893 683.964 208.644L683.512 207.752L683.06 206.86ZM687.539 206.81C688.029 206.556 688.22 205.952 687.965 205.462C687.711 204.972 687.107 204.781 686.617 205.035L687.078 205.923L687.539 206.81ZM690.171 203.168C689.683 203.427 689.498 204.033 689.757 204.521C690.017 205.008 690.622 205.193 691.11 204.934L690.64 204.051L690.171 203.168ZM694.646 203.03C695.131 202.765 695.309 202.158 695.045 201.673C694.781 201.188 694.173 201.009 693.688 201.274L694.167 202.152L694.646 203.03ZM697.193 199.34C696.711 199.609 696.538 200.218 696.808 200.7C697.077 201.182 697.686 201.355 698.168 201.086L697.681 200.213L697.193 199.34ZM701.679 199.1C702.158 198.826 702.324 198.215 702.05 197.735C701.775 197.256 701.164 197.09 700.685 197.364L701.182 198.232L701.679 199.1ZM704.14 195.361C703.664 195.641 703.504 196.254 703.784 196.73C704.063 197.206 704.676 197.366 705.152 197.086L704.646 196.224L704.14 195.361ZM708.615 195.029C709.088 194.744 709.241 194.129 708.956 193.656C708.671 193.183 708.057 193.03 707.584 193.315L708.099 194.172L708.615 195.029ZM711.004 191.231C710.534 191.521 710.388 192.137 710.678 192.607C710.968 193.077 711.584 193.223 712.054 192.933L711.529 192.082L711.004 191.231ZM715.463 190.804C715.93 190.508 716.069 189.891 715.773 189.424C715.478 188.957 714.861 188.818 714.394 189.113L714.928 189.958L715.463 190.804ZM717.768 186.952C717.305 187.252 717.173 187.872 717.473 188.335C717.774 188.798 718.393 188.93 718.857 188.63L718.312 187.791L717.768 186.952ZM722.219 186.42C722.679 186.115 722.803 185.494 722.497 185.034C722.191 184.574 721.571 184.449 721.111 184.755L721.665 185.588L722.219 186.42ZM724.427 182.52C723.971 182.831 723.854 183.454 724.165 183.91C724.477 184.366 725.099 184.483 725.555 184.172L724.991 183.346L724.427 182.52ZM728.871 181.878C729.324 181.562 729.434 180.938 729.117 180.486C728.8 180.033 728.176 179.924 727.724 180.24L728.298 181.059L728.871 181.878ZM730.983 177.928C730.534 178.25 730.432 178.875 730.754 179.324C731.077 179.772 731.702 179.874 732.15 179.552L731.566 178.74L730.983 177.928ZM735.404 177.181C735.849 176.853 735.943 176.227 735.615 175.783C735.287 175.339 734.661 175.244 734.217 175.572L734.81 176.377L735.404 177.181ZM737.425 173.173C736.984 173.507 736.898 174.134 737.232 174.574C737.565 175.014 738.192 175.101 738.633 174.767L738.029 173.97L737.425 173.173ZM741.822 172.318C742.257 171.979 742.336 171.35 741.997 170.915C741.657 170.479 741.029 170.4 740.593 170.74L741.207 171.529L741.822 172.318ZM743.735 168.261C743.304 168.606 743.234 169.235 743.578 169.667C743.923 170.098 744.553 170.168 744.984 169.823L744.359 169.042L743.735 168.261ZM748.114 167.286C748.541 166.935 748.602 166.305 748.252 165.878C747.901 165.452 747.271 165.39 746.844 165.741L747.479 166.513L748.114 167.286ZM749.914 163.183C749.492 163.539 749.439 164.17 749.796 164.592C750.152 165.014 750.783 165.067 751.205 164.711L750.56 163.947L749.914 163.183ZM754.265 162.089C754.682 161.727 754.727 161.095 754.365 160.678C754.002 160.261 753.371 160.217 752.954 160.579L753.61 161.334L754.265 162.089ZM755.955 157.936C755.543 158.304 755.507 158.936 755.875 159.348C756.243 159.759 756.875 159.795 757.287 159.427L756.621 158.681L755.955 157.936ZM760.27 156.724C760.676 156.35 760.703 155.717 760.329 155.311C759.955 154.904 759.323 154.878 758.916 155.251L759.593 155.988L760.27 156.724ZM761.843 152.521C761.442 152.901 761.424 153.534 761.804 153.935C762.184 154.336 762.817 154.353 763.218 153.973L762.53 153.247L761.843 152.521ZM766.121 151.185C766.516 150.799 766.524 150.166 766.139 149.771C765.753 149.375 765.12 149.367 764.725 149.753L765.423 150.469L766.121 151.185ZM767.566 146.941C767.176 147.333 767.178 147.966 767.569 148.355C767.961 148.745 768.594 148.744 768.983 148.352L768.275 147.647L767.566 146.941ZM771.808 145.472C772.191 145.075 772.18 144.442 771.783 144.058C771.386 143.675 770.753 143.686 770.369 144.083L771.089 144.778L771.808 145.472ZM773.121 141.19C772.744 141.593 772.764 142.226 773.168 142.603C773.571 142.981 774.203 142.96 774.581 142.557L773.851 141.873L773.121 141.19ZM777.312 139.595C777.683 139.186 777.653 138.554 777.244 138.183C776.835 137.812 776.202 137.842 775.831 138.251L776.572 138.923L777.312 139.595ZM778.499 135.265C778.134 135.68 778.175 136.312 778.59 136.677C779.004 137.041 779.636 137.001 780.001 136.586L779.25 135.926L778.499 135.265ZM782.633 133.544C782.991 133.124 782.94 132.493 782.519 132.135C782.099 131.777 781.468 131.827 781.11 132.248L781.871 132.896L782.633 133.544ZM783.677 129.183C783.326 129.609 783.387 130.239 783.813 130.591C784.239 130.942 784.869 130.881 785.22 130.455L784.449 129.819L783.677 129.183ZM787.76 127.319C788.104 126.887 788.033 126.258 787.601 125.914C787.169 125.57 786.54 125.641 786.196 126.073L786.978 126.696L787.76 127.319ZM788.656 122.932C788.319 123.37 788.4 123.998 788.838 124.335C789.276 124.672 789.904 124.59 790.24 124.152L789.448 123.542L788.656 122.932ZM792.673 120.936C793.003 120.493 792.91 119.867 792.467 119.537C792.024 119.208 791.398 119.3 791.068 119.743L791.871 120.34L792.673 120.936ZM793.427 116.513C793.105 116.962 793.208 117.587 793.657 117.908C794.106 118.23 794.73 118.128 795.052 117.679L794.24 117.096L793.427 116.513ZM797.369 114.39C797.683 113.936 797.57 113.313 797.116 112.999C796.661 112.684 796.038 112.798 795.724 113.252L796.547 113.821L797.369 114.39ZM797.971 109.943C797.665 110.403 797.789 111.023 798.249 111.33C798.708 111.636 799.329 111.512 799.636 111.052L798.803 110.498L797.971 109.943ZM801.843 107.677C802.141 107.212 802.006 106.594 801.541 106.295C801.076 105.997 800.457 106.132 800.159 106.597L801.001 107.137L801.843 107.677ZM802.283 103.222C801.993 103.692 802.139 104.308 802.609 104.598C803.079 104.888 803.695 104.742 803.985 104.272L803.134 103.747L802.283 103.222ZM806.075 100.818C806.356 100.343 806.199 99.7293 805.724 99.4476C805.249 99.166 804.636 99.3228 804.354 99.7979L805.214 100.308L806.075 100.818ZM806.361 96.3428C806.088 96.8228 806.256 97.4333 806.736 97.7065C807.216 97.9796 807.826 97.8119 808.099 97.3319L807.23 96.8373L806.361 96.3428ZM810.058 93.8178C810.322 93.333 810.144 92.7256 809.659 92.461C809.174 92.1965 808.567 92.3751 808.302 92.8599L809.18 93.3389L810.058 93.8178ZM810.188 89.3287C809.932 89.8182 810.122 90.4224 810.611 90.6781C811.1 90.9339 811.705 90.7444 811.96 90.2549L811.074 89.7918L810.188 89.3287ZM548.5 251.5L548.656 252.488C549.292 252.387 549.937 252.284 550.59 252.177L550.428 251.19L550.267 250.203C549.617 250.309 548.977 250.412 548.344 250.512L548.5 251.5ZM554.434 250.512L554.606 251.497C555.882 251.274 557.185 251.039 558.515 250.793L558.333 249.81L558.151 248.826C556.828 249.072 555.531 249.305 554.262 249.527L554.434 250.512ZM562.297 249.055L562.489 250.036C563.78 249.784 565.093 249.521 566.427 249.247L566.226 248.268L566.025 247.288C564.697 247.56 563.39 247.822 562.105 248.073L562.297 249.055ZM570.15 247.444L570.36 248.422C571.657 248.143 572.972 247.855 574.305 247.557L574.087 246.581L573.868 245.605C572.541 245.902 571.232 246.189 569.94 246.466L570.15 247.444ZM577.982 245.692L578.209 246.666C579.506 246.364 580.818 246.053 582.145 245.732L581.91 244.76L581.675 243.788C580.354 244.107 579.047 244.417 577.755 244.718L577.982 245.692ZM585.786 243.806L586.029 244.776C587.322 244.452 588.628 244.119 589.945 243.778L589.694 242.81L589.444 241.842C588.131 242.182 586.831 242.513 585.543 242.836L585.786 243.806ZM593.561 241.791L593.819 242.757C595.106 242.412 596.403 242.059 597.709 241.697L597.443 240.733L597.176 239.77C595.875 240.13 594.583 240.481 593.302 240.825L593.561 241.791ZM601.303 239.648L601.578 240.61C602.856 240.245 604.143 239.872 605.438 239.491L605.156 238.532L604.874 237.573C603.584 237.952 602.302 238.323 601.029 238.687L601.303 239.648ZM609.014 237.38L609.304 238.337C610.573 237.953 611.849 237.561 613.133 237.16L612.835 236.206L612.538 235.251C611.259 235.65 609.988 236.04 608.724 236.423L609.014 237.38ZM616.69 234.987L616.996 235.939C618.256 235.535 619.522 235.123 620.793 234.704L620.48 233.754L620.167 232.805C618.901 233.222 617.64 233.632 616.385 234.034L616.69 234.987ZM624.304 232.476L624.625 233.423C625.884 232.997 627.149 232.563 628.418 232.121L628.089 231.177L627.76 230.232C626.496 230.672 625.237 231.104 623.983 231.529L624.304 232.476ZM631.875 229.842L632.211 230.784C633.471 230.333 634.736 229.876 636.004 229.41L635.66 228.472L635.315 227.533C634.052 227.996 632.793 228.452 631.538 228.9L631.875 229.842ZM639.408 227.079L639.76 228.015C641.016 227.543 642.275 227.063 643.537 226.576L643.176 225.643L642.816 224.71C641.56 225.195 640.306 225.673 639.056 226.143L639.408 227.079ZM646.9 224.187L647.269 225.117C648.511 224.625 649.756 224.125 651.004 223.619L650.628 222.692L650.252 221.766C649.009 222.27 647.77 222.767 646.532 223.257L646.9 224.187ZM654.348 221.163L654.733 222.086C655.963 221.574 657.194 221.055 658.428 220.528L658.035 219.609L657.643 218.689C656.415 219.213 655.189 219.73 653.964 220.239L654.348 221.163ZM661.732 218.011L662.133 218.928C663.355 218.393 664.579 217.851 665.803 217.302L665.394 216.39L664.985 215.477C663.766 216.024 662.548 216.563 661.331 217.095L661.732 218.011ZM669.048 214.731L669.465 215.64C670.685 215.08 671.904 214.513 673.125 213.938L672.699 213.033L672.273 212.129C671.058 212.701 669.844 213.265 668.63 213.823L669.048 214.731ZM676.31 211.312L676.744 212.213C677.951 211.631 679.158 211.041 680.365 210.445L679.922 209.548L679.479 208.652C678.278 209.246 677.076 209.832 675.875 210.412L676.31 211.312ZM683.512 207.752L683.964 208.644C685.156 208.04 686.347 207.429 687.539 206.81L687.078 205.923L686.617 205.035C685.432 205.651 684.246 206.259 683.06 206.86L683.512 207.752ZM690.64 204.051L691.11 204.934C692.289 204.306 693.468 203.672 694.646 203.03L694.167 202.152L693.688 201.274C692.517 201.912 691.344 202.544 690.171 203.168L690.64 204.051ZM697.681 200.213L698.168 201.086C699.34 200.431 700.51 199.769 701.679 199.1L701.182 198.232L700.685 197.364C699.523 198.03 698.358 198.688 697.193 199.34L697.681 200.213ZM704.646 196.224L705.152 197.086C706.308 196.408 707.463 195.722 708.615 195.029L708.099 194.172L707.584 193.315C706.438 194.004 705.29 194.686 704.14 195.361L704.646 196.224ZM711.529 192.082L712.054 192.933C713.193 192.231 714.329 191.521 715.463 190.804L714.928 189.958L714.394 189.113C713.266 189.827 712.136 190.532 711.004 191.231L711.529 192.082ZM718.312 187.791L718.857 188.63C719.98 187.901 721.101 187.164 722.219 186.42L721.665 185.588L721.111 184.755C720 185.495 718.885 186.227 717.768 186.952L718.312 187.791ZM724.991 183.346L725.555 184.172C726.664 183.415 727.769 182.65 728.871 181.878L728.298 181.059L727.724 180.24C726.629 181.008 725.53 181.768 724.427 182.52L724.991 183.346ZM731.566 178.74L732.15 179.552C733.239 178.769 734.323 177.979 735.404 177.181L734.81 176.377L734.217 175.572C733.143 176.365 732.064 177.15 730.983 177.928L731.566 178.74ZM738.029 173.97L738.633 174.767C739.7 173.958 740.763 173.142 741.822 172.318L741.207 171.529L740.593 170.74C739.541 171.558 738.485 172.369 737.425 173.173L738.029 173.97ZM744.359 169.042L744.984 169.823C746.032 168.985 747.075 168.139 748.114 167.286L747.479 166.513L746.844 165.741C745.813 166.588 744.776 167.429 743.735 168.261L744.359 169.042ZM750.56 163.947L751.205 164.711C752.23 163.845 753.251 162.971 754.265 162.089L753.61 161.334L752.954 160.579C751.946 161.455 750.933 162.323 749.914 163.183L750.56 163.947ZM756.621 158.681L757.287 159.427C758.287 158.534 759.281 157.633 760.27 156.724L759.593 155.988L758.916 155.251C757.935 156.154 756.947 157.049 755.955 157.936L756.621 158.681ZM762.53 153.247L763.218 153.973C764.191 153.052 765.159 152.122 766.121 151.185L765.423 150.469L764.725 149.753C763.77 150.683 762.809 151.606 761.843 152.521L762.53 153.247ZM768.275 147.647L768.983 148.352C769.931 147.4 770.873 146.44 771.808 145.472L771.089 144.778L770.369 144.083C769.441 145.044 768.507 145.996 767.566 146.941L768.275 147.647ZM773.851 141.873L774.581 142.557C775.498 141.578 776.409 140.591 777.312 139.595L776.572 138.923L775.831 138.251C774.935 139.238 774.031 140.218 773.121 141.19L773.851 141.873ZM779.25 135.926L780.001 136.586C780.885 135.58 781.763 134.566 782.633 133.544L781.871 132.896L781.11 132.248C780.247 133.262 779.376 134.267 778.499 135.265L779.25 135.926ZM784.449 129.819L785.22 130.455C786.075 129.418 786.921 128.373 787.76 127.319L786.978 126.696L786.196 126.073C785.364 127.118 784.524 128.154 783.677 129.183L784.449 129.819ZM789.448 123.542L790.24 124.152C791.059 123.088 791.87 122.017 792.673 120.936L791.871 120.34L791.068 119.743C790.272 120.814 789.468 121.877 788.656 122.932L789.448 123.542ZM794.24 117.096L795.052 117.679C795.833 116.591 796.605 115.494 797.369 114.39L796.547 113.821L795.724 113.252C794.967 114.347 794.201 115.434 793.427 116.513L794.24 117.096ZM798.803 110.498L799.636 111.052C800.38 109.935 801.116 108.81 801.843 107.677L801.001 107.137L800.159 106.597C799.439 107.72 798.709 108.836 797.971 109.943L798.803 110.498ZM803.134 103.747L803.985 104.272C804.691 103.129 805.387 101.977 806.075 100.818L805.214 100.308L804.354 99.7979C803.673 100.947 802.982 102.089 802.283 103.222L803.134 103.747ZM807.23 96.8373L808.099 97.3319C808.761 96.1687 809.414 94.9973 810.058 93.8178L809.18 93.3389L808.302 92.8599C807.664 94.0289 807.017 95.1898 806.361 96.3428L807.23 96.8373Z" fill="#4C81FF"/>
</svg>
